<svg width="150" height="26" viewBox="0 0 150 26" version="1.1" xmlns="http://www.w3.org/2000/svg" xmlns:xlink="http://www.w3.org/1999/xlink">
<title>Logo</title>
<desc>Created using Figma</desc>
<g id="Canvas" transform="translate(487 493)">
<g id="Logo">
<g id="Group">
<g id="Vector">
<use xlink:href="#path0_fill" transform="translate(-468.986 -492)" fill="#FFFFFF"/>
<use xlink:href="#path1_stroke" transform="translate(-468.986 -492)" fill="#FFFFFF"/>
</g>
<g id="Vector">
<use xlink:href="#path2_fill" transform="translate(-479.602 -488.59)" fill="#FFFFFF"/>
<use xlink:href="#path3_stroke" transform="translate(-479.602 -488.59)" fill="#FFFFFF"/>
</g>
<g id="Vector">
<use xlink:href="#path4_fill" transform="translate(-472.35 -489.906)" fill="#FFFFFF"/>
<use xlink:href="#path5_stroke" transform="translate(-472.35 -489.906)" fill="#FFFFFF"/>
</g>
<g id="Vector">
<use xlink:href="#path6_fill" transform="translate(-487 -469.101)" fill="#FFFFFF"/>
</g>
</g>
<g id="Group">
<g id="Vector">
<use xlink:href="#path7_fill" transform="translate(-449.97 -490.296)" fill="#FFFFFF"/>
<use xlink:href="#path8_stroke" transform="translate(-449.97 -490.296)" fill="#FFFFFF"/>
</g>
<g id="Vector">
<use xlink:href="#path9_fill" transform="translate(-429.455 -484.966)" fill="#FFFFFF"/>
<use xlink:href="#path10_stroke" transform="translate(-429.455 -484.966)" fill="#FFFFFF"/>
</g>
<g id="Vector">
<use xlink:href="#path11_fill" transform="translate(-415.916 -489.654)" fill="#FFFFFF"/>
<use xlink:href="#path12_stroke" transform="translate(-415.916 -489.654)" fill="#FFFFFF"/>
</g>
<g id="Vector">
<use xlink:href="#path13_fill" transform="translate(-410.515 -484.988)" fill="#FFFFFF"/>
<use xlink:href="#path14_stroke" transform="translate(-410.515 -484.988)" fill="#FFFFFF"/>
</g>
<g id="Vector">
<use xlink:href="#path15_fill" transform="translate(-399.417 -490.274)" fill="#FFFFFF"/>
<use xlink:href="#path16_stroke" transform="translate(-399.417 -490.274)" fill="#FFFFFF"/>
</g>
<g id="Vector">
<use xlink:href="#path17_fill" transform="translate(-381.399 -484.966)" fill="#FFFFFF"/>
<use xlink:href="#path18_stroke" transform="translate(-381.399 -484.966)" fill="#FFFFFF"/>
</g>
<g id="Vector">
<use xlink:href="#path19_fill" transform="translate(-367.86 -489.654)" fill="#FFFFFF"/>
<use xlink:href="#path20_stroke" transform="translate(-367.86 -489.654)" fill="#FFFFFF"/>
</g>
<g id="Vector">
<use xlink:href="#path21_fill" transform="translate(-362.282 -490.298)" fill="#FFFFFF"/>
<use xlink:href="#path22_stroke" transform="translate(-362.282 -490.298)" fill="#FFFFFF"/>
</g>
<g id="Vector">
<use xlink:href="#path23_fill" transform="translate(-348.234 -485.113)" fill="#FFFFFF"/>
<use xlink:href="#path24_stroke" transform="translate(-348.234 -485.113)" fill="#FFFFFF"/>
</g>
</g>
</g>
</g>
<defs>
<path id="path0_fill" d="M 7.82918 0.0902532C 8.01793 -0.26856 3.56142 0.399478 -1.30544e-07 2.87175L 2.02788 8.25496C 2.02761 8.25522 7.54231 0.635211 7.82918 0.0902532Z"/>
<path id="path1_stroke" d="M 7.82918 0.0902532L 8.27162 0.323158L 8.27169 0.323032L 7.82918 0.0902532ZM -1.30544e-07 2.87175L -0.285126 2.46102L -0.6053 2.68328L -0.467902 3.04801L -1.30544e-07 2.87175ZM 2.02788 8.25496L 2.37247 8.61725L 2.61261 8.38884L 2.49578 8.0787L 2.02788 8.25496ZM 8.27169 0.323032C 8.32166 0.228031 8.36483 0.0758689 8.30864 -0.0958578C 8.25583 -0.257249 8.14344 -0.347694 8.07317 -0.390854C 7.9477 -0.46792 7.81041 -0.485303 7.74354 -0.492092C 7.59843 -0.505633 7.37236 -0.498173 7.12985 -0.470976C 6.66319 -0.41753 5.97315 -0.282701 5.18574 -0.0620398C 3.62624 0.376475 1.54537 1.19446 -0.285126 2.46102L 0.285125 3.28249C 2.01604 2.07677 3.94414 1.3246 5.45606 0.90073C 6.20437 0.690199 6.81566 0.570779 7.2428 0.522625C 7.44719 0.499023 7.56615 0.493846 7.64253 0.502793C 7.68641 0.507248 7.62899 0.50989 7.5498 0.461252C 7.50267 0.432305 7.40503 0.358175 7.35823 0.215151C 7.30805 0.0617915 7.34849 -0.0699508 7.38667 -0.142526L 8.27169 0.323032ZM -0.467902 3.04801L 1.55997 8.43122L 2.49578 8.0787L 0.467902 2.69549L -0.467902 3.04801ZM 1.68328 7.89267C 2.35628 7.87793 2.43377 8.54694 2.43353 8.54726C 2.43349 8.54733 2.43341 8.54743 2.43345 8.54738C 2.43357 8.54721 2.43376 8.54695 2.43407 8.54652C 2.43472 8.54563 2.43569 8.54429 2.437 8.54247C 2.43964 8.53882 2.44359 8.53336 2.44881 8.52614C 2.45925 8.51171 2.47475 8.49027 2.49499 8.46229C 2.53545 8.40634 2.59486 8.32417 2.67056 8.21942C 2.82192 8.00997 3.03857 7.71004 3.29938 7.34849C 3.82094 6.62548 4.51964 5.65538 5.22722 4.66838C 5.93478 3.6814 6.65218 2.67616 7.2104 1.88392C 7.48971 1.48751 7.73062 1.14232 7.91018 0.879896C 8.0806 0.630821 8.21892 0.423278 8.27162 0.323158L 7.38674 -0.142652C 7.39605 -0.161025 7.3514 -0.0829454 7.29845 -0.00215725C 7.24409 0.0808843 7.17297 0.186469 7.08488 0.315211C 6.90795 0.573809 6.67096 0.913346 6.39293 1.30794C 5.83646 2.09771 5.12143 3.09963 4.41449 4.08574C 3.70756 5.07184 3.00971 6.04075 2.48837 6.76345C 2.22774 7.12475 2.01135 7.42434 1.86005 7.63369C 1.78442 7.73835 1.72511 7.82039 1.68467 7.8763C 1.66446 7.90425 1.64898 7.92565 1.63855 7.94007C 1.63334 7.94728 1.62938 7.95276 1.62672 7.95643C 1.62539 7.95827 1.62436 7.95969 1.62368 7.96064C 1.62332 7.96113 1.62301 7.96156 1.6228 7.96185C 1.62267 7.96203 1.62247 7.9623 1.62234 7.96249C 1.62202 7.96293 1.69947 8.63199 2.37247 8.61725L 1.68328 7.89267Z"/>
<path id="path2_fill" d="M 9.72004 2.01774e-07L 11.8426 5.74228C 11.8426 5.74228 2.53358 18.2336 0.899783 20.3969C 0.742045 20.6057 -0.141024 20.0063 0.0193883 19.799C 1.04068 18.4797 4.0444 14.5351 4.0444 14.5351C 4.0444 14.5351 1.73339 5.98157 9.72004 2.01774e-07Z"/>
<path id="path3_stroke" d="M 9.72004 2.01774e-07L 10.189 -0.173352L 9.95669 -0.801921L 9.42031 -0.400202L 9.72004 2.01774e-07ZM 11.8426 5.74228L 12.2435 6.04105L 12.4056 5.82346L 12.3116 5.56892L 11.8426 5.74228ZM 0.899783 20.3969L 1.29872 20.6983L 1.29878 20.6982L 0.899783 20.3969ZM 0.0193883 19.799L -0.375988 19.493L -0.376011 19.493L 0.0193883 19.799ZM 4.0444 14.5351L 4.4422 14.838L 4.59127 14.6422L 4.52709 14.4047L 4.0444 14.5351ZM 9.25106 0.173352L 11.3736 5.91563L 12.3116 5.56892L 10.189 -0.173352L 9.25106 0.173352ZM 11.8426 5.74228C 11.4416 5.4435 11.4416 5.44355 11.4415 5.44364C 11.4415 5.44374 11.4414 5.44388 11.4412 5.44407C 11.4409 5.44445 11.4405 5.44502 11.44 5.44577C 11.4388 5.44729 11.4371 5.44955 11.4349 5.45256C 11.4304 5.45857 11.4237 5.46754 11.4149 5.47939C 11.3972 5.50309 11.371 5.53829 11.3367 5.5843C 11.2681 5.67631 11.1673 5.81154 11.0385 5.98443C 10.7808 6.33021 10.4108 6.82658 9.96165 7.429C 9.06341 8.63384 7.84878 10.2628 6.58309 11.9594C 4.05168 15.3525 1.31687 19.015 0.500788 20.0956L 1.29878 20.6982C 2.1165 19.6155 4.85307 15.9507 7.38461 12.5573C 8.65038 10.8607 9.86511 9.23157 10.7634 8.02669C 11.2125 7.42425 11.5825 6.92784 11.8403 6.58205C 11.9691 6.40915 12.0699 6.2739 12.1385 6.18188C 12.1728 6.13587 12.1991 6.10066 12.2167 6.07696C 12.2256 6.06511 12.2322 6.05613 12.2367 6.05012C 12.239 6.04711 12.2407 6.04484 12.2418 6.04333C 12.2423 6.04257 12.2428 6.042 12.2431 6.04162C 12.2432 6.04143 12.2433 6.04129 12.2434 6.0412C 12.2434 6.0411 12.2435 6.04105 11.8426 5.74228ZM 0.500845 20.0955C 0.544318 20.0379 0.598431 19.9981 0.651083 19.9736C 0.701046 19.9503 0.743794 19.9434 0.769293 19.9413C 0.794901 19.9392 0.811602 19.9413 0.816366 19.942C 0.819288 19.942 0.824247 19.9442 0.813918 19.9409C 0.798722 19.9365 0.771714 19.9263 0.734828 19.9077C 0.698937 19.8896 0.659869 19.8666 0.621125 19.8403C 0.582347 19.814 0.547227 19.7866 0.518379 19.7609C 0.48853 19.7343 0.471515 19.715 0.464433 19.7057C 0.46119 19.7015 0.463086 19.7033 0.467402 19.7113C 0.471403 19.7187 0.481387 19.7386 0.489287 19.7696C 0.497262 19.801 0.505053 19.8518 0.495818 19.9147C 0.486075 19.9812 0.459163 20.0477 0.414788 20.1051L -0.376011 19.493C -0.515545 19.6733 -0.515425 19.8762 -0.479903 20.016C -0.447476 20.1435 -0.381939 20.2451 -0.330244 20.3128C -0.235409 20.4328 -0.0756565 20.5748 0.0594334 20.6677C 0.195223 20.7587 0.385039 20.8549 0.532318 20.9005C 0.616229 20.9239 0.753964 20.9425 0.850879 20.938C 0.979448 20.9275 1.16587 20.8741 1.29872 20.6983L 0.500845 20.0955ZM 0.414764 20.1051C 0.926319 19.4443 1.93361 18.1269 2.81233 16.9757C 3.2517 16.4001 3.65919 15.8656 3.95678 15.4751C 4.10558 15.2799 4.22694 15.1206 4.31108 15.0102C 4.35315 14.9549 4.38593 14.9119 4.40819 14.8827C 4.41932 14.8681 4.42782 14.8569 4.43353 14.8494C 4.43639 14.8456 4.43856 14.8428 4.44001 14.8409C 4.44073 14.8399 4.44128 14.8392 4.44164 14.8387C 4.44183 14.8385 4.44197 14.8383 4.44206 14.8382C 4.4421 14.8381 4.44214 14.8381 4.44216 14.8381C 4.44218 14.838 4.4422 14.838 4.0444 14.5351C 3.6466 14.2322 3.64658 14.2322 3.64656 14.2322C 3.64654 14.2323 3.64651 14.2323 3.64646 14.2324C 3.64637 14.2325 3.64623 14.2327 3.64605 14.2329C 3.64569 14.2334 3.64514 14.2341 3.64442 14.235C 3.64297 14.2369 3.64082 14.2398 3.63796 14.2435C 3.63225 14.251 3.62376 14.2622 3.61264 14.2768C 3.59039 14.306 3.55764 14.349 3.51559 14.4042C 3.43147 14.5146 3.31019 14.6738 3.16143 14.869C 2.86391 15.2594 2.45664 15.7935 2.01742 16.369C 1.13896 17.5199 0.133748 18.8345 -0.375988 19.493L 0.414764 20.1051ZM 4.0444 14.5351C 4.52709 14.4047 4.52715 14.4049 4.52719 14.4051C 4.5272 14.4051 4.52724 14.4052 4.52725 14.4053C 4.52727 14.4054 4.52725 14.4053 4.5272 14.4051C 4.52702 14.4044 4.52687 14.4039 4.52651 14.4025C 4.5256 14.399 4.52454 14.3949 4.52282 14.3881C 4.51904 14.3731 4.51409 14.353 4.50728 14.3238C 4.49299 14.2627 4.47409 14.1772 4.45156 14.0607C 4.40524 13.822 4.34961 13.4865 4.30548 13.0541C 4.21511 12.1764 4.17613 10.982 4.382 9.58274C 4.78699 6.80365 6.15015 3.29834 10.0198 0.400203L 9.42031 -0.400202C 5.30329 2.68323 3.82862 6.44547 3.39245 9.43853C 3.17774 10.9253 3.21734 12.2431 3.3107 13.1562C 3.35844 13.6191 3.42097 13.9986 3.46983 14.251C 3.49489 14.3801 3.51784 14.4842 3.5335 14.5513C 3.54167 14.5863 3.54872 14.6149 3.5532 14.6327C 3.55561 14.6422 3.55774 14.6505 3.559 14.6553C 3.55971 14.658 3.56039 14.6606 3.56075 14.662C 3.56098 14.6628 3.56122 14.6637 3.56133 14.6641C 3.56141 14.6644 3.5615 14.6648 3.56154 14.6649C 3.56163 14.6652 3.5617 14.6655 4.0444 14.5351Z"/>
<path id="path4_fill" d="M 11.5088 1.35809e-08L 2.61087e-07 15.3725C 2.61087e-07 15.3725 12.8447 10.9612 11.5088 1.35809e-08Z"/>
<path id="path5_stroke" d="M 11.5088 1.35809e-08L 12.0051 -0.0604929L 11.8545 -1.29609L 11.1085 -0.299657L 11.5088 1.35809e-08ZM 2.61087e-07 15.3725L -0.400257 15.0728L -1.37354 16.3729L 0.162405 15.8454L 2.61087e-07 15.3725ZM 11.1085 -0.299657L -0.400257 15.0728L 0.400258 15.6722L 11.909 0.299657L 11.1085 -0.299657ZM 2.61087e-07 15.3725C 0.162405 15.8454 0.162638 15.8453 0.16292 15.8452C 0.163079 15.8452 0.163411 15.845 0.163729 15.8449C 0.164243 15.8448 0.165198 15.8444 0.166223 15.8441C 0.168027 15.8434 0.171103 15.8424 0.174688 15.8411C 0.181362 15.8388 0.192093 15.835 0.205247 15.8303C 0.230553 15.8212 0.26972 15.807 0.318737 15.7887C 0.414712 15.7529 0.558968 15.6975 0.737964 15.6246C 1.09165 15.4805 1.60468 15.258 2.20765 14.9602C 3.40438 14.3685 5.01591 13.4456 6.57063 12.1848C 9.68687 9.65329 12.7019 5.65686 12.0051 -0.0604929L 11.0124 0.060493C 11.6516 5.30435 8.91225 8.99417 5.94011 11.4086C 4.45064 12.6207 2.93449 13.4858 1.76458 14.0637C 1.18423 14.3507 0.704199 14.5586 0.360662 14.6985C 0.191044 14.7676 0.0606438 14.8177 -0.0308838 14.8518C -0.075619 14.8685 -0.108414 14.8804 -0.131634 14.8887C -0.142742 14.8927 -0.150414 14.8954 -0.156078 14.8974C -0.158662 14.8983 -0.160238 14.8989 -0.161545 14.8993C -0.162075 14.8995 -0.162289 14.8996 -0.162556 14.8997C -0.162628 14.8997 -0.16259 14.8997 -0.162626 14.8997C -0.16254 14.8997 -0.162405 14.8996 2.61087e-07 15.3725Z"/>
<path id="path6_fill" d="M 0.697168 0.000142592C 1.97298 -0.000366001 4.42327 0.000650907 5.55792 0.000650907C 6.25037 0.000650907 6.24074 1.09845 5.64668 1.09845C 4.57085 1.09845 1.85962 1.10099 0.635944 1.10099C -0.217449 1.10099 -0.226539 0.000651186 0.697168 0.000142592Z"/>
<path id="path7_fill" d="M 11.8332 16.2658C 12.8995 16.5743 13.827 16.801 14.6169 16.9479C 15.4067 17.0947 16.1055 17.1679 16.7137 17.1679C 16.9901 17.1679 17.2587 17.1582 17.5196 17.1395C 17.7805 17.1208 18.0367 17.0925 18.2892 17.0556C 18.4078 17.326 18.4941 17.5738 18.5501 17.7995C 18.6049 18.0251 18.6329 18.2394 18.6329 18.4424C 18.6329 18.8036 18.5144 19.0814 18.2773 19.277C 18.0402 19.4726 17.7049 19.5701 17.2706 19.5701C 16.8918 19.5701 16.467 19.5253 15.9976 19.4352C 15.5277 19.345 15.032 19.2129 14.5108 19.0406C 14.179 18.9351 13.6935 18.7775 13.0538 18.5671C 9.90262 17.5302 7.68788 17.0114 6.40895 17.0114C 5.94253 17.0114 5.48683 17.0732 5.04066 17.1973C 4.5945 17.3215 4.13463 17.5114 3.66106 17.7666C 3.49487 17.5869 3.37275 17.4213 3.29353 17.2705C 3.2143 17.1202 3.17499 16.9813 3.17499 16.8538C 3.17499 16.5533 3.30306 16.3276 3.5598 16.1774C 3.81654 16.0271 4.19777 15.9523 4.70291 15.9523L 4.82145 15.9523C 3.30544 15.4114 2.12242 14.4946 1.27357 13.2013C 0.424722 11.9087 -6.81705e-09 10.3756 -6.81705e-09 8.60151C -6.81705e-09 6.0989 0.898289 4.0391 2.69487 2.4238C 4.49144 0.807368 6.7872 1.00355e-06 9.58274 1.00355e-06C 12.2514 1.00355e-06 14.3935 0.721188 16.0084 2.16413C 17.6233 3.60764 18.4304 5.52399 18.4304 7.91434C 18.4304 9.94353 17.8717 11.6649 16.7548 13.0777C 15.6373 14.4884 13.9967 15.552 11.8332 16.2658ZM 15.9554 8.06969C 15.9554 6.15333 15.3531 4.62761 14.1492 3.49254C 12.9448 2.35803 11.3162 1.78993 9.26286 1.78993C 7.21729 1.78993 5.57499 2.39885 4.33538 3.6167C 3.09517 4.83399 2.47566 6.44249 2.47566 8.44219C 2.47566 10.3892 3.07968 11.9733 4.28772 13.1945C 5.49577 14.4158 7.06718 15.0258 9.00195 15.0258C 11.0469 15.0258 12.7172 14.3795 14.0122 13.0868C 15.3078 11.7941 15.9554 10.1216 15.9554 8.06969Z"/>
<path id="path8_stroke" d="M 11.8332 16.2658L 11.6766 15.791L 10.1423 16.2972L 11.6943 16.7461L 11.8332 16.2658ZM 18.2892 17.0556L 18.7472 16.8549L 18.5942 16.5058L 18.217 16.5608L 18.2892 17.0556ZM 18.5501 17.7995L 19.036 17.6815L 19.0354 17.6791L 18.5501 17.7995ZM 15.9976 19.4352L 16.0919 18.9442L 16.0918 18.9441L 15.9976 19.4352ZM 14.5108 19.0406L 14.6678 18.5658L 14.6623 18.5641L 14.5108 19.0406ZM 13.0538 18.5671L 12.8975 19.0421L 12.8976 19.0421L 13.0538 18.5671ZM 3.66106 17.7666L 3.29396 18.106L 3.55705 18.3906L 3.89821 18.2068L 3.66106 17.7666ZM 3.29353 17.2705L 3.73617 17.038L 3.73581 17.0373L 3.29353 17.2705ZM 4.82145 15.9523L 4.82145 16.4523L 7.71079 16.4523L 4.98947 15.4814L 4.82145 15.9523ZM 1.27357 13.2013L 1.69157 12.927L 1.69152 12.9269L 1.27357 13.2013ZM 2.69487 2.4238L 3.02916 2.79561L 3.02929 2.7955L 2.69487 2.4238ZM 16.0084 2.16413L 16.3416 1.79135L 16.3415 1.79128L 16.0084 2.16413ZM 16.7548 13.0777L 17.1467 13.3882L 17.147 13.3878L 16.7548 13.0777ZM 14.1492 3.49254L 14.4922 3.12874L 14.4921 3.12857L 14.1492 3.49254ZM 4.33538 3.6167L 4.68562 3.97354L 4.68578 3.97338L 4.33538 3.6167ZM 14.0122 13.0868L 13.6591 12.7329L 13.659 12.7329L 14.0122 13.0868ZM 11.6943 16.7461C 12.7706 17.0574 13.7219 17.2899 14.5255 17.4395L 14.7082 16.4563C 13.9321 16.3122 13.0284 16.0911 11.9722 15.7855L 11.6943 16.7461ZM 14.5255 17.4395C 15.335 17.5895 16.0794 17.6672 16.7137 17.6679L 16.7137 16.6679C 16.1315 16.6685 15.4785 16.5999 14.7082 16.4563L 14.5255 17.4395ZM 16.7137 17.6679C 16.999 17.6678 17.2855 17.6575 17.5554 17.6382L 17.4838 16.6408C 17.2319 16.659 16.9811 16.6679 16.7137 16.6679L 16.7137 17.6679ZM 17.5554 17.6382C 17.8259 17.6187 18.1003 17.5884 18.3614 17.5504L 18.217 16.5608C 17.9731 16.5965 17.7351 16.6229 17.4838 16.6408L 17.5554 17.6382ZM 17.8313 17.2563C 17.9424 17.5088 18.0149 17.7165 18.0649 17.9199L 19.0354 17.6791C 18.9734 17.4312 18.8732 17.1433 18.7472 16.8549L 17.8313 17.2563ZM 18.0643 17.9175C 18.1134 18.1166 18.134 18.2719 18.1329 18.4424L 19.1329 18.4424C 19.1319 18.207 19.0965 17.9336 19.036 17.6815L 18.0643 17.9175ZM 18.1329 18.4424C 18.1329 18.6831 18.0606 18.8076 17.9591 18.8913L 18.5955 19.6627C 18.9682 19.3552 19.1329 18.924 19.1329 18.4424L 18.1329 18.4424ZM 17.9591 18.8913C 17.8424 18.9876 17.6362 19.0701 17.2706 19.0701L 17.2706 20.0701C 17.7736 20.0701 18.2381 19.9576 18.5955 19.6627L 17.9591 18.8913ZM 17.2706 19.0701C 16.918 19.0708 16.5405 19.0308 16.0919 18.9442L 15.9033 19.9262C 16.3936 20.0199 16.8655 20.0694 17.2706 20.0701L 17.2706 19.0701ZM 16.0918 18.9441C 15.6392 18.8576 15.175 18.7338 14.6678 18.5659L 14.3538 19.5153C 14.8891 19.6921 15.4161 19.8324 15.9035 19.9262L 16.0918 18.9441ZM 14.6623 18.5641C 14.332 18.4591 13.8488 18.3022 13.21 18.0922L 12.8976 19.0421C 13.5383 19.2528 14.0261 19.4112 14.3594 19.5171L 14.6623 18.5641ZM 13.2101 18.0922C 10.0641 17.0569 7.77828 16.5114 6.40895 16.5114L 6.40895 17.5114C 7.59747 17.5114 9.74114 18.0034 12.8975 19.0421L 13.2101 18.0922ZM 6.40895 16.5114C 5.90886 16.5125 5.38597 16.5835 4.90661 16.7157L 5.17472 17.679C 5.58769 17.5629 5.9762 17.5103 6.40895 17.5114L 6.40895 16.5114ZM 4.90661 16.7157C 4.43174 16.8487 3.92034 17.0597 3.42391 17.3264L 3.89821 18.2068C 4.34892 17.9632 4.75725 17.7943 5.17472 17.679L 4.90661 16.7157ZM 4.02817 17.4271C 3.8802 17.2682 3.79648 17.1559 3.73617 17.038L 2.85089 17.503C 2.94902 17.6867 3.10953 17.9055 3.29396 18.106L 4.02817 17.4271ZM 3.73581 17.0373C 3.67853 16.9345 3.67024 16.9126 3.67499 16.8538L 2.67499 16.8538C 2.67973 17.0501 2.75007 17.3059 2.85125 17.5037L 3.73581 17.0373ZM 3.67499 16.8538C 3.67499 16.728 3.71129 16.668 3.81234 16.6089L 3.30726 15.7458C 2.89482 15.9872 2.67499 16.3785 2.67499 16.8538L 3.67499 16.8538ZM 3.81234 16.6089C 3.95595 16.5249 4.23159 16.4523 4.70291 16.4523L 4.70291 15.4523C 4.16396 15.4523 3.67712 15.5294 3.30726 15.7458L 3.81234 16.6089ZM 4.70291 16.4523L 4.82145 16.4523L 4.82145 15.4523L 4.70291 15.4523L 4.70291 16.4523ZM 4.98947 15.4814C 3.54559 14.9728 2.48956 14.1552 1.69157 12.927L 0.855567 13.4757C 1.75527 14.834 3.06529 15.8499 4.65343 16.4232L 4.98947 15.4814ZM 1.69152 12.9269C 0.880107 11.7022 0.495442 10.3082 0.5 8.60151L -0.5 8.60151C -0.495442 10.4429 -0.0306643 12.1151 0.855622 13.4758L 1.69152 12.9269ZM 0.5 8.60151C 0.5 6.2349 1.34232 4.31225 3.02916 2.79561L 2.36057 2.05199C 0.454259 3.76595 -0.5 5.96291 -0.5 8.60151L 0.5 8.60151ZM 3.02929 2.7955C 4.71974 1.27456 6.88996 0.500001 9.58274 0.500001L 9.58274 -0.499999C 6.68444 -0.499999 4.26315 0.340179 2.36044 2.0521L 3.02929 2.7955ZM 9.58274 0.500001C 12.1583 0.500001 14.172 1.19384 15.6752 2.53697L 16.3415 1.79128C 14.6149 0.248533 12.3444 -0.499999 9.58274 -0.499999L 9.58274 0.500001ZM 15.6751 2.53691C 17.1722 3.8751 17.9304 5.64984 17.9304 7.91434L 18.9304 7.91434C 18.9304 5.39815 18.0743 3.34017 16.3416 1.79135L 15.6751 2.53691ZM 17.9304 7.91434C 17.9366 9.86538 17.4308 11.4289 16.3625 12.7677L 17.147 13.3878C 18.3125 11.9008 18.9243 10.0217 18.9304 7.91434L 17.9304 7.91434ZM 16.3628 12.7673C 15.3202 14.0834 13.7717 15.0998 11.6766 15.791L 11.9899 16.7406C 14.2218 16.0042 15.9543 14.8933 17.1467 13.3882L 16.3628 12.7673ZM 16.4554 8.06969C 16.4554 6.03936 15.8124 4.37342 14.4922 3.12874L 13.8062 3.85633C 14.8939 4.8818 15.4554 6.26731 15.4554 8.06969L 16.4554 8.06969ZM 14.4921 3.12857C 13.1739 1.88697 11.4116 1.28993 9.26286 1.28993L 9.26286 2.28993C 11.2207 2.28993 12.7156 2.82909 13.8064 3.8565L 14.4921 3.12857ZM 9.26286 1.28993C 7.11112 1.28993 5.33446 1.93423 3.98497 3.26003L 4.68578 3.97338C 5.81552 2.86347 7.32345 2.28993 9.26286 2.28993L 9.26286 1.28993ZM 3.98514 3.25987C 2.63442 4.58562 1.97566 6.33039 1.97566 8.44219L 2.97566 8.44219C 2.97566 6.55459 3.55591 5.08236 4.68562 3.97354L 3.98514 3.25987ZM 1.97566 8.44219C 1.97566 10.5017 2.619 12.2185 3.93225 13.5462L 4.64319 12.8429C 3.54036 11.728 2.97566 10.2766 2.97566 8.44219L 1.97566 8.44219ZM 3.93225 13.5462C 5.24651 14.8748 6.95218 15.5258 9.00195 15.5258L 9.00195 14.5258C 7.18217 14.5258 5.74502 13.9568 4.64319 12.8429L 3.93225 13.5462ZM 9.00195 15.5258C 11.1623 15.5258 12.9653 14.8383 14.3655 13.4407L 13.659 12.7329C 12.4691 13.9207 10.9315 14.5258 9.00195 14.5258L 9.00195 15.5258ZM 14.3654 13.4408C 15.7668 12.0425 16.4554 10.2367 16.4554 8.06969L 15.4554 8.06969C 15.4554 10.0064 14.8489 11.5457 13.6591 12.7329L 14.3654 13.4408Z"/>
<path id="path9_fill" d="M 8.27939 9.60618C 7.74208 10.2298 7.16546 10.688 6.55012 10.9816C 5.93419 11.2748 5.23903 11.4211 4.46524 11.4211C 3.16248 11.4211 2.16531 11.0474 1.47431 10.299C 0.783322 9.55119 0.437826 8.47053 0.437826 7.05764C 0.437826 6.75715 0.457484 6.20266 0.497395 5.39416C 0.53671 4.58623 0.556962 3.92684 0.556962 3.416C 0.556962 2.73223 0.513479 2.15846 0.426509 1.69694C 0.33954 1.23486 0.197172 0.830611 8.36224e-07 0.484759C 0.355623 0.319203 0.665376 0.19674 0.929859 0.118498C 1.19434 0.0391223 1.41713 1.55723e-06 1.59941 1.55723e-06C 1.97052 1.55723e-06 2.22547 0.0884459 2.36367 0.265341C 2.50187 0.442235 2.57097 0.76711 2.57097 1.24053C 2.57097 1.61643 2.53939 2.33648 2.47625 3.39955C 2.41311 4.46319 2.38154 5.33689 2.38154 6.02066C 2.38154 7.45623 2.56322 8.45012 2.92659 9.00292C 3.28995 9.55572 3.9178 9.83183 4.81013 9.83183C 5.46598 9.83183 6.07179 9.68102 6.62875 9.38052C 7.18572 9.08059 7.72838 8.60661 8.25735 7.96027C 8.28892 7.47891 8.31275 6.97374 8.32824 6.44362C 8.34372 5.9135 8.35206 5.33293 8.35206 4.70189C 8.35206 3.67964 8.29905 2.82465 8.19182 2.13748C 8.0852 1.44974 7.91721 0.906585 7.68847 0.508005C 8.0441 0.335079 8.35981 0.208076 8.6362 0.124731C 8.9126 0.0419537 9.16517 0.000568216 9.39451 0.000568216C 9.74179 0.000568216 9.98245 0.106024 10.1171 0.31637C 10.2511 0.526716 10.3184 0.981993 10.3184 1.6805C 10.3184 2.01161 10.2964 2.73847 10.2535 3.8622C 10.21 4.98594 10.1886 5.94639 10.1886 6.74298C 10.1886 7.85538 10.238 8.71434 10.3369 9.31873C 10.4358 9.92368 10.599 10.3954 10.8283 10.7339C 10.4334 10.9142 10.1058 11.044 9.84544 11.1228C 9.58453 11.2022 9.35996 11.2413 9.17053 11.2413C 8.83099 11.2413 8.59808 11.1308 8.4718 10.9085C 8.34253 10.6863 8.27939 10.252 8.27939 9.60618Z"/>
<path id="path10_stroke" d="M 8.27939 9.60618L 8.77939 9.60618L 8.77939 8.25977L 7.90058 9.27983L 8.27939 9.60618ZM 6.55012 10.9816L 6.76498 11.4331L 6.76549 11.4329L 6.55012 10.9816ZM 1.47431 10.299L 1.84168 9.95984L 1.84155 9.9597L 1.47431 10.299ZM 0.497395 5.39416L 0.996787 5.41881L 0.996804 5.41846L 0.497395 5.39416ZM 0.426509 1.69694L -0.0648633 1.78942L -0.0648426 1.78953L 0.426509 1.69694ZM 8.36224e-07 0.484759L -0.211021 0.0314712L -0.703311 0.26065L -0.434369 0.732394L 8.36224e-07 0.484759ZM 0.929859 0.118498L 1.0717 0.597962L 1.07358 0.597396L 0.929859 0.118498ZM 2.47625 3.39955L 1.97713 3.36991L 1.97713 3.36992L 2.47625 3.39955ZM 6.62875 9.38052L 6.39169 8.94029L 6.39134 8.94048L 6.62875 9.38052ZM 8.25735 7.96027L 8.64429 8.27694L 8.74579 8.15291L 8.75628 7.99299L 8.25735 7.96027ZM 8.19182 2.13748L 7.69773 2.21408L 7.6978 2.21456L 8.19182 2.13748ZM 7.68847 0.508005L 7.46982 0.0583478L 6.9883 0.292492L 7.25481 0.756879L 7.68847 0.508005ZM 8.6362 0.124731L 8.49275 -0.35425L 8.49185 -0.353978L 8.6362 0.124731ZM 10.1171 0.31637L 10.5387 0.0476866L 10.5382 0.0468395L 10.1171 0.31637ZM 10.2535 3.8622L 10.7531 3.88154L 10.7531 3.88127L 10.2535 3.8622ZM 10.3369 9.31873L 10.8303 9.23807L 10.8303 9.238L 10.3369 9.31873ZM 10.8283 10.7339L 11.036 11.1887L 11.574 10.9431L 11.2423 10.4534L 10.8283 10.7339ZM 9.84544 11.1228L 9.70056 10.6443L 9.69991 10.6445L 9.84544 11.1228ZM 8.4718 10.9085L 8.90654 10.6615L 8.90401 10.6571L 8.4718 10.9085ZM 7.90058 9.27983C 7.39563 9.86933 6.90058 10.2639 6.33476 10.5304L 6.76549 11.4329C 7.43035 11.112 8.08854 10.5904 8.6582 9.93253L 7.90058 9.27983ZM 6.33526 10.5302C 5.77416 10.8011 5.18727 10.9237 4.46524 10.9211L 4.46524 11.9211C 5.29079 11.9184 6.09422 11.7485 6.76498 11.4331L 6.33526 10.5302ZM 4.46524 10.9211C 3.26044 10.9211 2.41309 10.5787 1.84168 9.95984L 1.10695 10.6382C 1.91752 11.5161 3.06451 11.9211 4.46524 11.9211L 4.46524 10.9211ZM 1.84155 9.9597C 1.26423 9.33489 0.937826 8.39385 0.937826 7.05764L -0.0621744 7.05764C -0.0621744 8.54722 0.302411 9.76748 1.10708 10.6383L 1.84155 9.9597ZM 0.937826 7.05764C 0.937747 6.76601 0.957035 6.22384 0.996787 5.41881L -0.00199674 5.36951C -0.0420666 6.18147 -0.0620959 6.74829 -0.0621744 7.05764L 0.937826 7.05764ZM 0.996804 5.41846C 1.03632 4.60605 1.0569 3.93451 1.05696 3.416L 0.0569625 3.416C 0.0570214 3.91916 0.0371035 4.5664 -0.0020139 5.36986L 0.996804 5.41846ZM 1.05696 3.416C 1.0566 2.71332 1.0092 2.09317 0.917861 1.60435L -0.0648426 1.78953C 0.0177598 2.22374 0.0573201 2.75113 0.0569625 3.416L 1.05696 3.416ZM 0.917882 1.60446C 0.822434 1.1052 0.651992 0.622912 0.43437 0.237124L -0.434369 0.732394C -0.257648 1.03831 -0.143355 1.36452 -0.0648632 1.78942L 0.917882 1.60446ZM 0.211023 0.938046C 0.553137 0.778538 0.828373 0.669426 1.0717 0.597958L 0.788021 -0.360962C 0.50238 -0.275946 0.158109 -0.140131 -0.211021 0.0314712L 0.211023 0.938046ZM 1.07358 0.597396C 1.30964 0.525647 1.46053 0.498114 1.59941 0.500002L 1.59941 -0.499998C 1.37373 -0.498111 1.07904 -0.447402 0.786134 -0.3604L 1.07358 0.597396ZM 1.59941 0.500002C 1.74991 0.498771 1.82398 0.50811 1.90492 0.538688C 1.97256 0.557717 1.95352 0.54252 1.96966 0.573162L 2.75768 -0.0424803C 2.4769 -0.401887 2.02498 -0.499998 1.59941 -0.499998L 1.59941 0.500002ZM 1.96966 0.573162C 1.99569 0.606481 2.07097 0.77753 2.07097 1.24053L 3.07097 1.24053C 3.07097 0.756691 3.00805 0.27799 2.75768 -0.0424803L 1.96966 0.573162ZM 2.07097 1.24053C 2.07109 1.60548 2.04006 2.31071 1.97713 3.36991L 2.97537 3.4292C 3.03873 2.36226 3.07085 1.62739 3.07097 1.24053L 2.07097 1.24053ZM 1.97713 3.36992C 1.91368 4.43935 1.88162 5.32786 1.88154 6.02066L 2.88154 6.02066C 2.88146 5.34592 2.91254 4.48703 2.97537 3.42918L 1.97713 3.36992ZM 1.88154 6.02066C 1.88154 7.46341 2.05756 8.59112 2.50877 9.27756L 3.34441 8.72828C 3.06889 8.30913 2.88154 7.44905 2.88154 6.02066L 1.88154 6.02066ZM 2.50877 9.27756C 2.99542 10.0179 3.81461 10.3318 4.81013 10.3318L 4.81013 9.33183C 4.02099 9.33183 3.58448 9.09351 3.34441 8.72828L 2.50877 9.27756ZM 4.81013 10.3318C 5.52683 10.3281 6.25231 10.1473 6.86617 9.82056L 6.39134 8.94048C 5.89127 9.21474 5.40513 9.33555 4.81013 9.33183L 4.81013 10.3318ZM 6.86582 9.82075C 7.47049 9.49157 8.08756 8.95445 8.64429 8.27694L 7.87041 7.6436C 7.36921 8.25878 6.90094 8.66962 6.39169 8.94029L 6.86582 9.82075ZM 8.75628 7.99299C 8.78813 7.50705 8.81238 6.99282 8.82802 6.45822L 7.82845 6.42902C 7.81311 6.95466 7.78971 7.45077 7.75842 7.92754L 8.75628 7.99299ZM 8.82802 6.45822C 8.84361 5.92439 8.85205 5.33652 8.85206 4.70189L 7.85206 4.70189C 7.85208 5.32933 7.84384 5.90261 7.82845 6.42902L 8.82802 6.45822ZM 8.85206 4.70189C 8.85182 3.66416 8.79612 2.77057 8.68585 2.06039L 7.6978 2.21456C 7.80198 2.87872 7.8523 3.69512 7.85206 4.70189L 8.85206 4.70189ZM 8.68592 2.06087C 8.57238 1.33727 8.37568 0.707064 8.12213 0.25913L 7.25481 0.756879C 7.45875 1.10611 7.59801 1.56221 7.69773 2.21408L 8.68592 2.06087ZM 7.90712 0.957662C 8.24685 0.792125 8.52545 0.679841 8.78055 0.603441L 8.49185 -0.353978C 8.19416 -0.263689 7.84134 -0.121967 7.46982 0.0583478L 7.90712 0.957662ZM 8.77965 0.603712C 9.02498 0.52916 9.20573 0.49892 9.39451 0.500568L 9.39451 -0.499432C 9.12461 -0.497784 8.80022 -0.445253 8.49275 -0.354249L 8.77965 0.603712ZM 9.39451 0.500568C 9.64387 0.500568 9.68648 0.571127 9.69594 0.585901L 10.5382 0.0468395C 10.2784 -0.359078 9.83972 -0.499432 9.39451 -0.499432L 9.39451 0.500568ZM 9.6954 0.585053C 9.68195 0.566901 9.71037 0.608674 9.72649 0.664786C 9.746 0.727792 9.75914 0.790325 9.77337 0.888413C 9.8042 1.09393 9.81862 1.34581 9.81841 1.6805L 10.8184 1.6805C 10.8182 1.31668 10.799 0.991671 10.7626 0.742336C 10.726 0.494216 10.6633 0.243162 10.5387 0.0476872L 9.6954 0.585053ZM 9.81841 1.6805C 9.81847 2.00403 9.79666 2.72135 9.75385 3.84313L 10.7531 3.88127C 10.7961 2.75558 10.8184 2.01919 10.8184 1.6805L 9.81841 1.6805ZM 9.75386 3.84287C 9.71023 4.97069 9.68859 5.94081 9.68855 6.74298L 10.6886 6.74298C 10.6885 5.95197 10.7098 5.00119 10.7531 3.88154L 9.75386 3.84287ZM 9.68855 6.74298C 9.68876 7.86975 9.74101 8.76914 9.84344 9.39946L 10.8303 9.238C 10.735 8.65953 10.6883 7.841 10.6886 6.74298L 9.68855 6.74298ZM 9.84343 9.39938C 9.94858 10.0427 10.129 10.5931 10.4144 11.0143L 11.2423 10.4534C 11.069 10.1977 10.9229 9.80469 10.8303 9.23807L 9.84343 9.39938ZM 10.6207 10.279C 10.2374 10.4542 9.94106 10.5719 9.70056 10.6443L 9.99032 11.6014C 10.2704 11.5161 10.6294 11.3742 11.036 11.1887L 10.6207 10.279ZM 9.69991 10.6445C 9.46865 10.7158 9.3169 10.7432 9.17053 10.7413L 9.17053 11.7413C 9.40302 11.7395 9.70042 11.6886 9.99097 11.6012L 9.69991 10.6445ZM 9.17053 10.7413C 9.05241 10.7413 8.98754 10.7218 8.95606 10.7068C 8.93107 10.6949 8.91849 10.6826 8.90652 10.6615L 8.03707 11.1555C 8.2815 11.5857 8.71951 11.7413 9.17053 11.7413L 9.17053 10.7413ZM 8.90401 10.6571C 8.85092 10.5659 8.77939 10.262 8.77939 9.60618L 7.77939 9.60618C 7.77939 10.2419 7.83414 10.8067 8.03958 11.1599L 8.90401 10.6571Z"/>
<path id="path11_fill" d="M 3.19822 15.4222C 2.86642 15.5951 2.55071 15.7227 2.25049 15.8054C 1.95026 15.8882 1.66196 15.9296 1.38556 15.9296C 0.998961 15.9296 0.736263 15.8298 0.598065 15.6308C 0.459867 15.4318 0.390768 15.0315 0.390768 14.4305C 0.390768 14.0852 0.426509 13.3102 0.497395 12.1077C 0.568282 10.9057 0.604021 9.87209 0.604021 9.00746C 0.604021 8.06799 0.556367 7.30485 0.461654 6.7186C 0.36694 6.13235 0.213253 5.63285 -1.05437e-06 5.21896C 0.291883 5.05397 0.592108 4.92754 0.900076 4.84136C 1.20804 4.75518 1.51184 4.71153 1.81206 4.71153C 2.17543 4.71153 2.42383 4.796 2.55845 4.96496C 2.69248 5.13392 2.7598 5.44802 2.7598 5.90613C 2.7598 6.02689 2.72406 6.68402 2.65317 7.87919C 2.58169 9.0738 2.54654 10.2089 2.54654 11.2838C 2.54654 12.2908 2.59956 13.1254 2.70678 13.7865C 2.81341 14.4487 2.97722 14.9935 3.19822 15.4222ZM 3.1035 1.27285C 3.1035 1.70148 2.94565 2.05867 2.62994 2.34442C 2.31423 2.63018 1.91512 2.77305 1.43381 2.77305C 1.01504 2.77305 0.683844 2.66022 0.439019 2.43457C 0.194193 2.20892 0.0720778 1.90445 0.0720778 1.52118C 0.0720778 1.10049 0.229933 0.741599 0.545644 0.445073C 0.861356 0.148547 1.24438 -8.65128e-07 1.69472 -8.65128e-07C 2.10514 -8.65128e-07 2.44289 0.120198 2.70737 0.360593C 2.97126 0.600422 3.1035 0.904886 3.1035 1.27285Z"/>
<path id="path12_stroke" d="M 3.19822 15.4222L 3.42931 15.8656L 3.87075 15.6355L 3.64263 15.193L 3.19822 15.4222ZM 0.497395 12.1077L -0.00173732 12.0782L -0.00173814 12.0782L 0.497395 12.1077ZM -1.05437e-06 5.21896L -0.246041 4.78369L -0.664785 5.02038L -0.444471 5.44797L -1.05437e-06 5.21896ZM 2.55845 4.96496L 2.95017 4.65422L 2.9495 4.65338L 2.55845 4.96496ZM 2.65317 7.87919L 3.15228 7.90905L 3.15229 7.90879L 2.65317 7.87919ZM 2.70678 13.7865L 3.20042 13.707L 3.20033 13.7064L 2.70678 13.7865ZM 2.70737 0.360593L 2.37107 0.730594L 2.37109 0.730611L 2.70737 0.360593ZM 2.96713 14.9788C 2.65697 15.1411 2.39033 15.2491 2.11759 15.3234L 2.38339 16.2875C 2.71109 16.1962 3.07588 16.0491 3.42931 15.8656L 2.96713 14.9788ZM 2.11759 15.3234C 1.84809 15.3988 1.62634 15.4309 1.38556 15.4296L 1.38556 16.4296C 1.69757 16.4283 2.05244 16.3777 2.38339 16.2875L 2.11759 15.3234ZM 1.38556 15.4296C 1.23034 15.4311 1.15732 15.4212 1.07608 15.3874C 1.00781 15.3666 1.02659 15.3827 1.00875 15.3456L 0.187379 15.916C 0.46422 16.3147 0.934795 16.4296 1.38556 16.4296L 1.38556 15.4296ZM 1.00875 15.3456C 1.00029 15.3334 0.964751 15.2669 0.9353 15.0963C 0.90445 14.9215 0.890471 14.7138 0.890768 14.4305L -0.109232 14.4305C -0.108936 14.7482 -0.0883647 15.0412 -0.0501155 15.2665C -0.0104679 15.4961 0.0576439 15.7292 0.187379 15.916L 1.00875 15.3456ZM 0.890768 14.4305C 0.890635 14.0968 0.925821 13.3364 0.996529 12.1371L -0.00173814 12.0782C -0.0728024 13.284 -0.109099 14.0737 -0.109232 14.4305L 0.890768 14.4305ZM 0.996528 12.1371C 1.06774 10.929 1.10395 9.88073 1.10402 9.00746L 0.104021 9.00746C 0.104095 9.86345 0.0688276 10.8823 -0.00173732 12.0782L 0.996528 12.1371ZM 1.10402 9.00746C 1.10378 8.0524 1.05328 7.24933 0.955253 6.63885L -0.031946 6.79834C 0.0594592 7.36036 0.104264 8.08358 0.104021 9.00746L 1.10402 9.00746ZM 0.955253 6.63885C 0.853849 6.01869 0.676251 5.44409 0.444469 4.98995L -0.444471 5.44797C -0.249745 5.82162 -0.119969 6.24601 -0.031946 6.79834L 0.955253 6.63885ZM 0.246039 5.65424C 0.512303 5.50277 0.756834 5.39963 1.03482 5.32286L 0.765336 4.35986C 0.427383 4.45545 0.0714633 4.60518 -0.246041 4.78369L 0.246039 5.65424ZM 1.03482 5.32286C 1.31119 5.24443 1.54749 5.21025 1.81206 5.21153L 1.81206 4.21153C 1.47619 4.2128 1.1049 4.26594 0.765336 4.35986L 1.03482 5.32286ZM 1.81206 5.21153C 1.95842 5.21153 2.05328 5.22897 2.11022 5.24832C 2.16348 5.26641 2.17145 5.28162 2.16741 5.27654L 2.9495 4.65338C 2.67115 4.30405 2.2266 4.21153 1.81206 4.21153L 1.81206 5.21153ZM 2.16674 5.2757C 2.15558 5.26394 2.17264 5.2792 2.18494 5.31123C 2.20094 5.34796 2.20841 5.37341 2.22046 5.43176C 2.2485 5.5582 2.26027 5.6988 2.2598 5.90613L 3.2598 5.90613C 3.2598 5.43851 3.19905 4.96796 2.95017 4.65422L 2.16674 5.2757ZM 2.2598 5.90613C 2.25998 6.01331 2.22486 6.65564 2.15405 7.84959L 3.15229 7.90879C 3.22325 6.71239 3.25961 6.04048 3.2598 5.90613L 2.2598 5.90613ZM 2.15406 7.84932C 2.0822 9.05112 2.0466 10.2011 2.04654 11.2838L 3.04654 11.2838C 3.04648 10.2166 3.08117 9.09647 3.15228 7.90905L 2.15406 7.84932ZM 2.04654 11.2838C 2.04679 12.3066 2.10269 13.1813 2.21323 13.8665L 3.20033 13.7064C 3.09642 13.0694 3.04629 12.2749 3.04654 11.2838L 2.04654 11.2838ZM 2.21314 13.8659C 2.3261 14.5606 2.51364 15.1809 2.75381 15.6513L 3.64263 15.193C 3.4408 14.8062 3.30071 14.3367 3.20042 13.707L 2.21314 13.8659ZM 2.6035 1.27285C 2.6035 1.56129 2.50461 1.78347 2.29441 1.97372L 2.96546 2.71513C 3.38669 2.33387 3.6035 1.84167 3.6035 1.27285L 2.6035 1.27285ZM 2.29441 1.97372C 2.08286 2.1652 1.80864 2.27305 1.43381 2.27305L 1.43381 3.27305C 2.0216 3.27305 2.5456 3.09515 2.96546 2.71513L 2.29441 1.97372ZM 1.43381 2.27305C 1.10713 2.27305 0.908406 2.18722 0.777884 2.06691L 0.100153 2.80222C 0.459283 3.13323 0.922955 3.27305 1.43381 3.27305L 1.43381 2.27305ZM 0.777884 2.06691C 0.651868 1.95077 0.572078 1.78829 0.572078 1.52118L -0.427922 1.52118C -0.427922 2.02062 -0.263482 2.46706 0.100153 2.80222L 0.777884 2.06691ZM 0.572078 1.52118C 0.572078 1.24297 0.669577 1.01463 0.88795 0.809527L 0.203338 0.080619C -0.209712 0.468568 -0.427922 0.958003 -0.427922 1.52118L 0.572078 1.52118ZM 0.88795 0.809527C 1.1278 0.571637 1.33635 0.491469 1.69472 0.499999L 1.69472 -0.500001C 1.15241 -0.49147 0.594907 -0.274543 0.203338 0.080619L 0.88795 0.809527ZM 1.69472 0.499999C 2.00061 0.499999 2.21231 0.586294 2.37107 0.730594L 3.04368 -0.00940718C 2.67347 -0.345898 2.20968 -0.500001 1.69472 -0.500001L 1.69472 0.499999ZM 2.37109 0.730611C 2.52703 0.872332 2.6035 1.04073 2.6035 1.27285L 3.6035 1.27285C 3.6035 0.769039 3.41549 0.328511 3.04366 -0.00942499L 2.37109 0.730611Z"/>
<path id="path13_fill" d="M 0.438422 11.3071C 0.296054 11.1795 0.187642 11.0463 0.112586 10.9074C 0.0375295 10.7685 -2.54503e-07 10.616 -2.54503e-07 10.4504C -2.54503e-07 10.21 0.787494 9.12369 2.36307 7.19202C 3.93865 5.26092 5.34982 3.42337 6.59718 1.6788C 6.36844 1.67143 6.06047 1.66406 5.67328 1.65669C 5.0496 1.64195 4.64632 1.63401 4.46524 1.63401C 3.58065 1.63401 2.81877 1.67143 2.179 1.74684C 1.53924 1.82168 1.07342 1.93053 0.781538 2.07341C 0.694568 1.84832 0.627849 1.64308 0.580194 1.45881C 0.532539 1.27512 0.508715 1.11863 0.508715 0.991066C 0.508715 0.660522 0.617127 0.427496 0.834551 0.292557C 1.05198 0.157051 1.44453 0.0895804 2.0134 0.0895804C 2.47148 0.0895804 3.19584 0.10149 4.18705 0.123602C 5.17827 0.14628 5.94193 0.157618 6.47924 0.157618C 7.19763 0.157618 7.72481 0.145145 8.06077 0.118497C 8.39614 0.0924167 8.69458 0.0532959 8.95489 7.26708e-07C 9.09726 0.157619 9.2021 0.308431 9.26882 0.451308C 9.33553 0.594184 9.36949 0.733092 9.36949 0.868031C 9.36949 1.22125 8.57009 2.37334 6.97068 4.32372C 5.37127 6.2741 3.99524 8.04984 2.8426 9.65097C 2.94506 9.65097 3.09517 9.65494 3.29234 9.66287C 3.72659 9.68499 4.00716 9.6969 4.13344 9.6969L 4.66658 9.6969C 5.91453 9.6969 6.87179 9.66458 7.53896 9.60108C 8.20612 9.53701 8.74104 9.42985 9.14373 9.2796C 9.21461 9.4531 9.27001 9.62035 9.30932 9.78137C 9.34864 9.94296 9.36889 10.0841 9.36889 10.2043C 9.36889 10.5723 9.20865 10.841 8.88877 11.0106C 8.56889 11.1795 8.04946 11.264 7.33106 11.264C 7.29949 11.264 6.7604 11.2493 5.71438 11.2192C 4.66837 11.1886 3.63962 11.1739 2.62875 11.1739C 2.22607 11.1739 1.84661 11.1852 1.49159 11.2079C 1.13716 11.2288 0.785705 11.2623 0.438422 11.3071Z"/>
<path id="path14_stroke" d="M 0.438422 11.3071L 0.104754 11.6795L 0.275285 11.8323L 0.50238 11.803L 0.438422 11.3071ZM 2.36307 7.19202L 1.97566 6.87594L 1.97562 6.87599L 2.36307 7.19202ZM 6.59718 1.6788L 7.00391 1.96961L 7.54763 1.20917L 6.61328 1.17906L 6.59718 1.6788ZM 5.67328 1.65669L 5.66147 2.15655L 5.66376 2.1566L 5.67328 1.65669ZM 2.179 1.74684L 2.2371 2.24345L 2.23753 2.2434L 2.179 1.74684ZM 0.781538 2.07341L 0.315141 2.25362L 0.511651 2.76221L 1.00136 2.52249L 0.781538 2.07341ZM 0.580194 1.45881L 1.06427 1.33362L 1.06417 1.33326L 0.580194 1.45881ZM 0.834551 0.292557L 1.09821 0.71739L 1.09901 0.716893L 0.834551 0.292557ZM 4.18705 0.123602L 4.19849 -0.376268L 4.1982 -0.376274L 4.18705 0.123602ZM 8.06077 0.118497L 8.02201 -0.379998L 8.02124 -0.379937L 8.06077 0.118497ZM 8.95489 7.26708e-07L 9.32594 -0.335147L 9.13446 -0.547135L 8.85461 -0.489839L 8.95489 7.26708e-07ZM 9.26882 0.451308L 8.81578 0.662857L 9.26882 0.451308ZM 2.8426 9.65097L 2.43681 9.35884L 1.86656 10.151L 2.8426 10.151L 2.8426 9.65097ZM 3.29234 9.66287L 3.31777 9.16349L 3.31245 9.16328L 3.29234 9.66287ZM 7.53896 9.60108L 7.58633 10.0988L 7.58675 10.0988L 7.53896 9.60108ZM 9.14373 9.2796L 9.60658 9.09049L 9.4232 8.64166L 8.96894 8.81115L 9.14373 9.2796ZM 9.30932 9.78137L 9.79515 9.66317L 9.79506 9.66277L 9.30932 9.78137ZM 8.88877 11.0106L 9.12229 11.4527L 9.1229 11.4524L 8.88877 11.0106ZM 5.71438 11.2192L 5.69975 11.719L 5.70003 11.719L 5.71438 11.2192ZM 1.49159 11.2079L 1.52113 11.707L 1.52346 11.7069L 1.49159 11.2079ZM 0.77209 10.9347C 0.657922 10.8345 0.603333 10.7684 0.552478 10.6697L -0.327307 11.1451C -0.22805 11.3241 -0.0658141 11.5246 0.104754 11.6795L 0.77209 10.9347ZM 0.552478 10.6697C 0.503994 10.5884 0.496366 10.5558 0.5 10.4504L -0.5 10.4504C -0.496366 10.6761 -0.428935 10.9485 -0.327307 11.1451L 0.552478 10.6697ZM 0.5 10.4504C 0.5 10.5294 0.475322 10.5662 0.495294 10.5203C 0.511967 10.4811 0.534468 10.4391 0.577609 10.3667C 0.668448 10.2133 0.803416 10.0137 0.99547 9.74896C 1.38381 9.21329 1.96587 8.47001 2.75053 7.50806L 1.97562 6.87599C 1.1847 7.8457 0.585221 8.61141 0.185919 9.16191C -0.0158484 9.44027 -0.176228 9.67803 -0.282281 9.85626C -0.337586 9.94971 -0.388917 10.0471 -0.421465 10.1209C -0.450713 10.188 -0.5 10.3113 -0.5 10.4504L 0.5 10.4504ZM 2.75049 7.50811C 4.33068 5.57127 5.75152 3.72109 7.00391 1.96961L 6.19045 1.38799C 4.94812 3.12565 3.54663 4.95057 1.97566 6.87594L 2.75049 7.50811ZM 6.61328 1.17906C 6.38247 1.17163 6.07122 1.16417 5.6828 1.15678L 5.66376 2.1566C 6.04973 2.16394 6.35441 2.17123 6.58108 2.17854L 6.61328 1.17906ZM 5.6851 1.15683C 5.06043 1.14206 4.65124 1.13403 4.46524 1.13401L 4.46524 2.13401C 4.6414 2.13398 5.03877 2.14183 5.66147 2.15655L 5.6851 1.15683ZM 4.46524 1.13401C 3.56838 1.13416 2.77721 1.17316 2.12048 1.25027L 2.23753 2.2434C 2.86032 2.1697 3.59292 2.13386 4.46524 2.13401L 4.46524 1.13401ZM 2.12091 1.25022C 1.46893 1.32649 0.932967 1.4426 0.561712 1.62433L 1.00136 2.52249C 1.21388 2.41847 1.60956 2.31686 2.2371 2.24345L 2.12091 1.25022ZM 1.24793 1.8932C 1.16569 1.68087 1.10786 1.50313 1.06427 1.33362L 0.0961203 1.58401C 0.147834 1.78303 0.223442 2.01578 0.315141 2.25362L 1.24793 1.8932ZM 1.06417 1.33326C 1.02233 1.17458 1.00729 1.0809 1.00871 0.991066L 0.00871491 0.991066C 0.010141 1.15637 0.0427515 1.37565 0.0962141 1.58437L 1.06417 1.33326ZM 1.00871 0.991066C 1.00871 0.775509 1.07105 0.734247 1.09821 0.717389L 0.57089 -0.132275C 0.163205 0.120744 0.00871491 0.545535 0.00871491 0.991066L 1.00871 0.991066ZM 1.09901 0.716893C 1.18556 0.662954 1.44894 0.58958 2.0134 0.58958L 2.0134 -0.41042C 1.44012 -0.41042 0.918393 -0.348852 0.570091 -0.131779L 1.09901 0.716893ZM 2.0134 0.58958C 2.46737 0.589564 3.18615 0.601396 4.1759 0.623477L 4.1982 -0.376274C 3.20552 -0.398416 2.47559 -0.410403 2.0134 -0.41042L 2.0134 0.58958ZM 4.17561 0.623471C 5.16884 0.646191 5.93822 0.657605 6.47924 0.657618L 6.47924 -0.342382C 5.94564 -0.342368 5.1877 -0.353631 4.19849 -0.376268L 4.17561 0.623471ZM 6.47924 0.657618C 7.20354 0.657583 7.7505 0.644485 8.10031 0.616932L 8.02124 -0.379937C 7.69912 -0.354195 7.19172 -0.342347 6.47924 -0.342382L 6.47924 0.657618ZM 8.09954 0.616992C 8.44804 0.589716 8.77727 0.546411 9.05518 0.48984L 8.85461 -0.489839C 8.61189 -0.439819 8.34425 -0.404883 8.02201 -0.379998L 8.09954 0.616992ZM 8.58385 0.335149C 8.70567 0.46852 8.76873 0.557812 8.81578 0.662857L 9.72186 0.239759C 9.63547 0.0590508 9.48885 -0.153283 9.32594 -0.335147L 8.58385 0.335149ZM 8.81578 0.662857C 8.86388 0.760131 8.87308 0.792889 8.86949 0.868031L 9.86949 0.868031C 9.8659 0.673296 9.80719 0.428238 9.72186 0.239759L 8.81578 0.662857ZM 8.86949 0.868031C 8.86949 0.818645 8.87946 0.857198 8.77802 1.04819C 8.68702 1.22023 8.55272 1.43313 8.35911 1.71184C 7.9668 2.27734 7.37925 3.03705 6.58405 4.00667L 7.3573 4.64077C 8.16151 3.66001 8.77337 2.86848 9.18062 2.28204C 9.38679 1.98478 9.5523 1.72153 9.66117 1.51726C 9.7596 1.33194 9.86949 1.09403 9.86949 0.868031L 8.86949 0.868031ZM 6.58405 4.00667C 4.98031 5.96241 3.59467 7.75061 2.43681 9.35884L 3.24839 9.94309C 4.39581 8.34908 5.76223 6.58578 7.3573 4.64077L 6.58405 4.00667ZM 2.8426 10.151C 2.93845 10.1509 3.07851 10.1547 3.27222 10.1625L 3.31245 9.16328C 3.11183 9.15521 2.95166 9.15101 2.8426 9.15097L 2.8426 10.151ZM 3.26691 10.1622C 3.70327 10.1844 3.99655 10.1968 4.13344 10.1969L 4.13344 9.1969C 4.01777 9.19701 3.74991 9.18553 3.31776 9.16352L 3.26691 10.1622ZM 4.13344 10.1969L 4.66658 10.1969L 4.66658 9.1969L 4.13344 9.1969L 4.13344 10.1969ZM 4.66658 10.1969C 5.92297 10.1968 6.90393 10.1635 7.58633 10.0988L 7.49158 9.10333C 6.83965 9.16561 5.90609 9.19697 4.66658 9.1969L 4.66658 10.1969ZM 7.58675 10.0988C 8.27922 10.0316 8.87798 9.91074 9.31851 9.74806L 8.96894 8.81115C 8.60411 8.94897 8.13302 9.04238 7.49116 9.10337L 7.58675 10.0988ZM 8.68087 9.46872C 8.74559 9.62636 8.78944 9.75837 8.82359 9.89997L 9.79506 9.66277C 9.75058 9.48233 9.68363 9.27983 9.60658 9.09049L 8.68087 9.46872ZM 8.8235 9.89957C 8.85769 10.0377 8.87016 10.1197 8.86889 10.2043L 9.86889 10.2043C 9.86762 10.0485 9.83959 9.84824 9.79515 9.66317L 8.8235 9.89957ZM 8.86889 10.2043C 8.86889 10.3907 8.80787 10.4876 8.65464 10.5688L 9.1229 11.4524C 9.60944 11.1945 9.86889 10.7539 9.86889 10.2043L 8.86889 10.2043ZM 8.65525 10.5685C 8.44873 10.6775 8.03337 10.764 7.33106 10.764L 7.33106 11.764C 8.06555 11.764 8.68905 11.6815 9.12229 11.4527L 8.65525 10.5685ZM 7.33106 10.764C 7.3558 10.764 6.77441 10.7495 5.72874 10.7194L 5.70003 11.719C 6.74639 11.7491 7.29266 11.764 7.33106 11.764L 7.33106 10.764ZM 5.72901 10.7194C 4.67926 10.6887 3.6432 10.6739 2.62875 10.6739L 2.62875 11.6739C 3.63604 11.6738 4.65747 11.6885 5.69975 11.719L 5.72901 10.7194ZM 2.62875 10.6739C 2.2186 10.6739 1.82321 10.6857 1.45971 10.7089L 1.52346 11.7069C 1.87002 11.6846 2.23353 11.6738 2.62875 11.6739L 2.62875 10.6739ZM 1.46205 10.7087C 1.09869 10.7303 0.730029 10.7654 0.374465 10.8112L 0.50238 11.803C 0.841381 11.7592 1.17562 11.7274 1.52113 11.707L 1.46205 10.7087Z"/>
<path id="path15_fill" d="M 12.616 9.14183C 13.0103 8.90937 13.3594 8.73418 13.6644 8.61738C 13.9682 8.50116 14.2148 8.44276 14.4042 8.44276C 14.8939 8.44276 15.2393 8.61171 15.4407 8.9502C 15.642 9.28868 15.7421 9.89704 15.7421 10.777C 15.7421 11.9194 15.648 12.9224 15.458 13.787C 15.2685 14.6517 15.0237 15.2413 14.7241 15.5571C 14.3053 15.9784 13.6828 16.2959 12.8578 16.5102C 12.0328 16.7245 11.0124 16.8311 9.7966 16.8311C 6.84261 16.8311 4.47179 16.1303 2.68295 14.7288C 0.894716 13.3266 -2.21781e-06 11.48 -2.21781e-06 9.18775C -2.21781e-06 8.03794 0.22934 6.95389 0.686824 5.93505C 1.1449 4.91677 1.82815 3.9756 2.73597 3.11154C 3.77841 2.1114 5.0079 1.34315 6.42563 0.806232C 7.84275 0.268744 9.34566 2.14552e-06 10.9326 2.14552e-06C 11.6271 2.14552e-06 12.1364 0.0861777 12.4599 0.259104C 12.7833 0.43203 12.946 0.706446 12.946 1.08178C 12.946 1.25527 12.9096 1.45598 12.8387 1.68503C 12.7679 1.91409 12.6606 2.16809 12.5189 2.44591C 12.2103 2.32571 11.8839 2.23726 11.536 2.18113C 11.1881 2.12444 10.8021 2.09666 10.375 2.09666C 8.07746 2.09666 6.19033 2.72996 4.71363 3.99657C 3.23694 5.26262 2.49829 6.88472 2.49829 8.86118C 2.49829 10.8002 3.13984 12.2982 4.42294 13.3539C 5.70604 14.4101 7.52764 14.938 9.88952 14.938C 10.4816 14.938 11.0577 14.8915 11.6182 14.7974C 12.1787 14.7032 12.7279 14.5626 13.2658 14.3744C 13.3207 14.0439 13.3623 13.698 13.3892 13.3374C 13.4172 12.9763 13.4309 12.5862 13.4309 12.1649C 13.4309 11.4585 13.3635 10.8552 13.2295 10.3557C 13.0955 9.85622 12.8918 9.45026 12.616 9.14183Z"/>
<path id="path16_stroke" d="M 12.616 9.14183L 12.362 8.7111L 11.8369 9.02068L 12.2432 9.47512L 12.616 9.14183ZM 13.6644 8.61738L 13.4857 8.1504L 13.4855 8.15045L 13.6644 8.61738ZM 15.458 13.787L 14.9696 13.6797L 14.9695 13.68L 15.458 13.787ZM 14.7241 15.5571L 15.0788 15.9097L 15.0868 15.9012L 14.7241 15.5571ZM 2.68295 14.7288L 2.37444 15.1222L 2.37458 15.1223L 2.68295 14.7288ZM 0.686824 5.93505L 0.230839 5.72992L 0.230697 5.73023L 0.686824 5.93505ZM 2.73597 3.11154L 3.08069 3.47371L 3.08212 3.47233L 2.73597 3.11154ZM 6.42563 0.806232L 6.60271 1.27382L 6.60294 1.27374L 6.42563 0.806232ZM 12.5189 2.44591L 12.3374 2.91181L 12.7587 3.07593L 12.9642 2.67318L 12.5189 2.44591ZM 11.536 2.18113L 11.4556 2.67462L 11.4563 2.67475L 11.536 2.18113ZM 4.71363 3.99657L 5.03908 4.37616L 5.03916 4.37609L 4.71363 3.99657ZM 4.42294 13.3539L 4.74072 12.9678L 4.74062 12.9677L 4.42294 13.3539ZM 13.2658 14.3744L 13.431 14.8463L 13.7107 14.7485L 13.7591 14.4562L 13.2658 14.3744ZM 13.3892 13.3374L 12.8906 13.2988L 12.8905 13.3003L 13.3892 13.3374ZM 12.8699 9.57256C 13.2495 9.34843 13.5612 9.19165 13.8432 9.08432L 13.4855 8.15045C 13.1576 8.27671 12.7711 8.47032 12.362 8.7111L 12.8699 9.57256ZM 13.843 9.08437C 14.1251 8.97645 14.3048 8.94276 14.4042 8.94276L 14.4042 7.94276C 14.1248 7.94276 13.8112 8.02587 13.4857 8.1504L 13.843 9.08437ZM 14.4042 8.94276C 14.7676 8.94276 14.9227 9.05743 15.011 9.20581L 15.8704 8.69458C 15.556 8.166 15.0201 7.94276 14.4042 7.94276L 14.4042 8.94276ZM 15.011 9.20581C 15.1364 9.41662 15.2421 9.90079 15.2421 10.777L 16.2421 10.777C 16.2421 9.89328 16.1477 9.16073 15.8704 8.69458L 15.011 9.20581ZM 15.2421 10.777C 15.2426 11.896 15.154 12.8452 14.9696 13.6797L 15.9463 13.8943C 16.142 12.9996 16.2416 11.9428 16.2421 10.777L 15.2421 10.777ZM 14.9695 13.68C 14.7833 14.53 14.561 15.0025 14.3614 15.213L 15.0868 15.9012C 15.4864 15.4801 15.7537 14.7733 15.9464 13.894L 14.9695 13.68ZM 14.3695 15.2046C 14.0357 15.5404 13.5063 15.8251 12.7321 16.0262L 12.9835 16.9941C 13.8594 16.7666 14.5749 16.4163 15.0787 15.9096L 14.3695 15.2046ZM 12.7321 16.0262C 11.9437 16.2325 10.9864 16.3318 9.7966 16.3311L 9.7966 17.3311C 11.0384 17.3304 12.1219 17.2165 12.9835 16.9941L 12.7321 16.0262ZM 9.7966 16.3311C 6.92066 16.3311 4.66885 15.6495 2.99133 14.3352L 2.37458 15.1223C 4.27473 16.6111 6.76455 17.3311 9.7966 17.3311L 9.7966 16.3311ZM 2.99147 14.3353C 1.32523 13.0288 0.499998 11.3278 0.499998 9.18775L -0.500002 9.18775C -0.500002 11.6322 0.4642 13.6245 2.37444 15.1222L 2.99147 14.3353ZM 0.499998 9.18775C 0.497284 8.08997 0.704697 7.10893 1.14295 6.13986L 0.230697 5.73023C -0.246017 6.79886 -0.497288 7.98591 -0.500002 9.18775L 0.499998 9.18775ZM 1.14281 6.14017C 1.57748 5.16752 2.20438 4.30492 3.08069 3.47371L 2.39125 2.74936C 1.45192 3.64628 0.712326 4.66602 0.230839 5.72992L 1.14281 6.14017ZM 3.08212 3.47233C 4.0856 2.50591 5.22999 1.79112 6.60271 1.27382L 6.24854 0.338642C 4.78581 0.895185 3.47123 1.71689 2.38981 2.75074L 3.08212 3.47233ZM 6.60294 1.27374C 7.97599 0.750666 9.38984 0.498047 10.9326 0.500002L 10.9326 -0.499998C 9.30148 -0.498042 7.70952 -0.213177 6.24831 0.338729L 6.60294 1.27374ZM 10.9326 0.500002C 11.6064 0.500002 12.0129 0.587107 12.2242 0.700044L 12.6956 -0.181837C 12.26 -0.414751 11.6479 -0.499998 10.9326 -0.499998L 10.9326 0.500002ZM 12.2242 0.700044C 12.3809 0.783831 12.446 0.886287 12.446 1.08178L 13.446 1.08178C 13.446 0.526604 13.1858 0.0802281 12.6956 -0.181837L 12.2242 0.700044ZM 12.446 1.08178C 12.448 1.21056 12.4239 1.33731 12.3611 1.53722L 13.3164 1.83285C 13.3953 1.57464 13.444 1.29999 13.446 1.08178L 12.446 1.08178ZM 12.3611 1.53722C 12.2981 1.74275 12.2073 1.9571 12.0735 2.21864L 12.9642 2.67318C 13.1139 2.37909 13.2376 2.08543 13.3164 1.83285L 12.3611 1.53722ZM 12.7004 1.98001C 12.3666 1.85079 11.9892 1.74849 11.6156 1.68752L 11.4563 2.67475C 11.7785 2.72604 12.054 2.80064 12.3374 2.91181L 12.7004 1.98001ZM 11.6164 1.68764C 11.2463 1.62784 10.8201 1.59698 10.375 1.59666L 10.375 2.59666C 10.7842 2.59634 11.1299 2.62104 11.4556 2.67462L 11.6164 1.68764ZM 10.375 1.59666C 7.98077 1.59666 5.97132 2.25908 4.38811 3.61706L 5.03916 4.37609C 6.40934 3.20084 8.17414 2.59666 10.375 2.59666L 10.375 1.59666ZM 4.38819 3.61699C 2.79865 4.97978 1.99829 6.74151 1.99829 8.86118L 2.99829 8.86118C 2.99829 7.02794 3.67523 5.54546 5.03908 4.37616L 4.38819 3.61699ZM 1.99829 8.86118C 1.99829 10.9218 2.68679 12.5729 4.10526 13.74L 4.74062 12.9677C 3.5929 12.0234 2.99829 10.6786 2.99829 8.86118L 1.99829 8.86118ZM 4.10516 13.7399C 5.50886 14.8954 7.45964 15.438 9.88952 15.438L 9.88952 14.438C 7.59564 14.438 5.90322 13.9248 4.74072 12.9678L 4.10516 13.7399ZM 9.88952 15.438C 10.5018 15.4376 11.1192 15.3877 11.701 15.2905L 11.5354 14.3043C 10.9961 14.3953 10.4615 14.4384 9.88952 14.438L 9.88952 15.438ZM 11.701 15.2905C 12.2822 15.1924 12.8727 15.0412 13.431 14.8463L 13.1007 13.9025C 12.5832 14.084 12.0752 14.2141 11.5354 14.3043L 11.701 15.2905ZM 13.7591 14.4562C 13.8156 14.1147 13.86 13.7465 13.8878 13.3745L 12.8905 13.3003C 12.8647 13.6495 12.8257 13.973 12.7726 14.2926L 13.7591 14.4562ZM 13.8877 13.3761C 13.9164 13.0044 13.9308 12.595 13.9309 12.1649L 12.9309 12.1649C 12.9309 12.5774 12.9179 12.9482 12.8907 13.2988L 13.8877 13.3761ZM 13.9309 12.1649C 13.9301 11.4307 13.8549 10.7624 13.7124 10.2261L 12.7466 10.4853C 12.8722 10.948 12.9316 11.4862 12.9309 12.1649L 13.9309 12.1649ZM 13.7124 10.2261C 13.5628 9.67838 13.3052 9.16903 12.9887 8.80854L 12.2432 9.47512C 12.4783 9.73149 12.6282 10.0341 12.7466 10.4853L 13.7124 10.2261Z"/>
<path id="path17_fill" d="M 8.27939 9.60618C 7.74208 10.2298 7.16606 10.688 6.55012 10.9816C 5.93419 11.2748 5.23903 11.4211 4.46524 11.4211C 3.16188 11.4211 2.1653 11.0474 1.47431 10.299C 0.78332 9.55119 0.437826 8.47053 0.437826 7.05764C 0.437826 6.75715 0.457482 6.20266 0.497393 5.39416C 0.536708 4.58623 0.556965 3.92684 0.556965 3.416C 0.556965 2.73223 0.513479 2.15846 0.426509 1.69694C 0.33954 1.23486 0.19717 0.830611 -1.23616e-06 0.484759C 0.355621 0.319203 0.664783 0.19674 0.929862 0.118498C 1.19434 0.0391223 1.41713 1.55723e-06 1.59941 1.55723e-06C 1.97052 1.55723e-06 2.22487 0.0884459 2.36307 0.265341C 2.50068 0.442235 2.57037 0.76711 2.57037 1.24053C 2.57037 1.61643 2.5388 2.33648 2.47566 3.39955C 2.41311 4.46319 2.38154 5.33689 2.38154 6.02066C 2.38154 7.45623 2.56322 8.45012 2.92599 9.00292C 3.28876 9.55572 3.91721 9.83183 4.80954 9.83183C 5.46479 9.83183 6.0706 9.68102 6.62757 9.38052C 7.18453 9.08059 7.72719 8.60661 8.25616 7.96027C 8.28773 7.47891 8.31156 6.97374 8.32705 6.44362C 8.34253 5.9135 8.35087 5.33293 8.35087 4.70189C 8.35087 3.67964 8.29726 2.82465 8.19063 2.13748C 8.08401 1.45031 7.91602 0.906585 7.68728 0.508005C 8.0429 0.335079 8.35802 0.208076 8.63501 0.124731C 8.91141 0.0419537 9.16398 0.000568216 9.39272 0.000568216C 9.74001 0.000568216 9.98066 0.106024 10.1153 0.31637C 10.2499 0.526716 10.3166 0.981993 10.3166 1.6805C 10.3166 2.01161 10.2946 2.73847 10.2517 3.8622C 10.2082 4.98594 10.1868 5.94639 10.1868 6.74298C 10.1868 7.85538 10.2362 8.71434 10.3351 9.31873C 10.4334 9.92368 10.5972 10.3954 10.8265 10.7339C 10.4316 10.9142 10.104 11.044 9.84366 11.1228C 9.58275 11.2022 9.35817 11.2413 9.16815 11.2413C 8.82861 11.2413 8.5957 11.1308 8.46941 10.9085C 8.34194 10.6863 8.27939 10.252 8.27939 9.60618Z"/>
<path id="path18_stroke" d="M 8.27939 9.60618L 8.77939 9.60618L 8.77939 8.25977L 7.90058 9.27983L 8.27939 9.60618ZM 6.55012 10.9816L 6.76498 11.4331L 6.76532 11.433L 6.55012 10.9816ZM 1.47431 10.299L 1.84167 9.95984L 1.84155 9.9597L 1.47431 10.299ZM 0.497393 5.39416L 0.996785 5.41881L 0.996802 5.41846L 0.497393 5.39416ZM 0.426509 1.69694L -0.0648631 1.78942L -0.0648424 1.78953L 0.426509 1.69694ZM -1.23616e-06 0.484759L -0.211023 0.0314712L -0.703313 0.26065L -0.434371 0.732394L -1.23616e-06 0.484759ZM 0.929862 0.118498L 1.07141 0.59805L 1.07359 0.597396L 0.929862 0.118498ZM 2.36307 0.265341L 2.75773 -0.041655L 2.75709 -0.0424803L 2.36307 0.265341ZM 2.47566 3.39955L 1.97654 3.36991L 1.97652 3.3702L 2.47566 3.39955ZM 6.62757 9.38052L 6.3905 8.94029L 6.39015 8.94048L 6.62757 9.38052ZM 8.25616 7.96027L 8.6431 8.27694L 8.7446 8.15291L 8.75509 7.99299L 8.25616 7.96027ZM 7.68728 0.508005L 7.46863 0.0583478L 6.98711 0.292492L 7.25362 0.756879L 7.68728 0.508005ZM 8.63501 0.124731L 8.49156 -0.354249L 8.49095 -0.354064L 8.63501 0.124731ZM 10.2517 3.8622L 10.7513 3.88154L 10.7513 3.88127L 10.2517 3.8622ZM 10.3351 9.31873L 10.8286 9.23854L 10.8285 9.238L 10.3351 9.31873ZM 10.8265 10.7339L 11.0342 11.1887L 11.5722 10.9431L 11.2405 10.4534L 10.8265 10.7339ZM 9.84366 11.1228L 9.69878 10.6443L 9.69813 10.6445L 9.84366 11.1228ZM 8.46941 10.9085L 8.90414 10.6615L 8.90314 10.6597L 8.46941 10.9085ZM 7.90058 9.27983C 7.39554 9.86942 6.90115 10.2639 6.33493 10.5303L 6.76532 11.433C 7.43097 11.112 8.08863 10.5903 8.6582 9.93253L 7.90058 9.27983ZM 6.33526 10.5302C 5.77416 10.8011 5.18727 10.9237 4.46524 10.9211L 4.46524 11.9211C 5.29079 11.9184 6.09422 11.7485 6.76498 11.4331L 6.33526 10.5302ZM 4.46524 10.9211C 3.25989 10.9211 2.41311 10.5787 1.84167 9.95984L 1.10695 10.6382C 1.9175 11.5161 3.06388 11.9211 4.46524 11.9211L 4.46524 10.9211ZM 1.84155 9.9597C 1.26423 9.33489 0.937826 8.39385 0.937826 7.05764L -0.0621743 7.05764C -0.0621743 8.54722 0.302408 9.76748 1.10708 10.6383L 1.84155 9.9597ZM 0.937826 7.05764C 0.937747 6.76601 0.957033 6.22384 0.996785 5.41881L -0.00199888 5.36951C -0.0420687 6.18147 -0.0620958 6.74829 -0.0621743 7.05764L 0.937826 7.05764ZM 0.996802 5.41846C 1.03631 4.60605 1.05691 3.93451 1.05696 3.416L 0.0569649 3.416C 0.0570239 3.91916 0.0371014 4.5664 -0.00201603 5.36986L 0.996802 5.41846ZM 1.05696 3.416C 1.05661 2.71332 1.0092 2.09317 0.917861 1.60435L -0.0648424 1.78953C 0.01776 2.22375 0.0573225 2.75114 0.0569649 3.416L 1.05696 3.416ZM 0.917882 1.60446C 0.822434 1.1052 0.651989 0.622911 0.434368 0.237124L -0.434371 0.732394C -0.25765 1.03831 -0.143355 1.36453 -0.0648631 1.78942L 0.917882 1.60446ZM 0.211021 0.938046C 0.553285 0.778473 0.82779 0.669423 1.07141 0.598045L 0.788316 -0.361048C 0.501776 -0.275942 0.157957 -0.140066 -0.211023 0.0314712L 0.211021 0.938046ZM 1.07359 0.597396C 1.30965 0.525647 1.46053 0.498114 1.59941 0.500002L 1.59941 -0.499998C 1.37373 -0.498111 1.07904 -0.447402 0.786136 -0.3604L 1.07359 0.597396ZM 1.59941 0.500002C 1.74987 0.498769 1.82371 0.508081 1.90445 0.538629C 1.97188 0.557598 1.95279 0.542399 1.96906 0.573162L 2.75709 -0.0424803C 2.47642 -0.401728 2.02532 -0.499998 1.59941 -0.499998L 1.59941 0.500002ZM 1.96842 0.572336C 1.99483 0.606294 2.07037 0.778564 2.07037 1.24053L 3.07037 1.24053C 3.07037 0.755657 3.00652 0.278177 2.75773 -0.0416544L 1.96842 0.572336ZM 2.07037 1.24053C 2.07049 1.60548 2.03947 2.31071 1.97654 3.36991L 2.97478 3.4292C 3.03814 2.36226 3.07025 1.62738 3.07037 1.24053L 2.07037 1.24053ZM 1.97652 3.3702C 1.91367 4.43948 1.88162 5.32786 1.88154 6.02066L 2.88154 6.02066C 2.88146 5.34592 2.91255 4.4869 2.9748 3.4289L 1.97652 3.3702ZM 1.88154 6.02066C 1.88154 7.46349 2.05759 8.59095 2.50797 9.27725L 3.34402 8.72859C 3.06885 8.30929 2.88154 7.44896 2.88154 6.02066L 1.88154 6.02066ZM 2.50797 9.27725C 2.99413 10.0181 3.8143 10.3318 4.80954 10.3318L 4.80954 9.33183C 4.02012 9.33183 3.5834 9.09336 3.34402 8.72859L 2.50797 9.27725ZM 4.80954 10.3318C 5.52564 10.3281 6.25112 10.1473 6.86498 9.82056L 6.39015 8.94048C 5.89009 9.21474 5.40395 9.33555 4.80954 9.33183L 4.80954 10.3318ZM 6.86463 9.82075C 7.4693 9.49157 8.08637 8.95445 8.6431 8.27694L 7.86922 7.6436C 7.36801 8.25878 6.89975 8.66962 6.3905 8.94029L 6.86463 9.82075ZM 8.75509 7.99299C 8.78694 7.50705 8.81119 6.99282 8.82683 6.45822L 7.82726 6.42902C 7.81192 6.95466 7.78852 7.45077 7.75723 7.92754L 8.75509 7.99299ZM 8.82683 6.45822C 8.84241 5.92439 8.85086 5.33651 8.85087 4.70189L 7.85087 4.70189C 7.85088 5.32934 7.84265 5.90261 7.82726 6.42902L 8.82683 6.45822ZM 8.85087 4.70189C 8.85062 3.66399 8.79433 2.77061 8.68472 2.06081L 7.69655 2.21415C 7.80019 2.87868 7.85111 3.69529 7.85087 4.70189L 8.85087 4.70189ZM 8.68472 2.06081C 8.5712 1.33788 8.37452 0.707132 8.12094 0.25913L 7.25362 0.756879C 7.45753 1.10604 7.59681 1.56274 7.69655 2.21415L 8.68472 2.06081ZM 7.90593 0.957662C 8.2458 0.792059 8.52368 0.679836 8.77908 0.603527L 8.49095 -0.354064C 8.19236 -0.263684 7.84 -0.121901 7.46863 0.0583478L 7.90593 0.957662ZM 8.77846 0.603712C 9.02379 0.52916 9.20454 0.498921 9.39272 0.500568L 9.39272 -0.499432C 9.12342 -0.497784 8.79903 -0.445253 8.49156 -0.354249L 8.77846 0.603712ZM 9.39272 0.500568C 9.64208 0.500568 9.68469 0.571126 9.69415 0.585901L 10.5364 0.0468395C 10.2766 -0.359078 9.83793 -0.499432 9.39272 -0.499432L 9.39272 0.500568ZM 9.69415 0.585901C 9.68075 0.567948 9.70891 0.608962 9.725 0.664932C 9.7445 0.727822 9.75759 0.790201 9.77178 0.888253C 9.80254 1.09372 9.81683 1.34568 9.81662 1.6805L 10.8166 1.6805C 10.8164 1.31681 10.7973 0.99188 10.7611 0.742496C 10.7246 0.494432 10.6618 0.242785 10.5364 0.0468395L 9.69415 0.585901ZM 9.81662 1.6805C 9.81668 2.00403 9.79488 2.72136 9.75206 3.84313L 10.7513 3.88127C 10.7943 2.75558 10.8166 2.01919 10.8166 1.6805L 9.81662 1.6805ZM 9.75207 3.84287C 9.70845 4.97069 9.68679 5.9408 9.68676 6.74298L 10.6868 6.74298C 10.6867 5.95197 10.708 5.00119 10.7513 3.88154L 9.75207 3.84287ZM 9.68676 6.74298C 9.68697 7.86975 9.73922 8.76914 9.84165 9.39946L 10.8285 9.238C 10.7332 8.65953 10.6866 7.841 10.6868 6.74298L 9.68676 6.74298ZM 9.84156 9.39891C 9.94621 10.043 10.1273 10.5933 10.4126 11.0143L 11.2405 10.4534C 11.0671 10.1975 10.9206 9.80438 10.8286 9.23854L 9.84156 9.39891ZM 10.6189 10.279C 10.2356 10.4542 9.93928 10.5719 9.69878 10.6443L 9.98854 11.6014C 10.2687 11.5161 10.6276 11.3742 11.0342 11.1887L 10.6189 10.279ZM 9.69813 10.6445C 9.46686 10.7158 9.31511 10.7432 9.16815 10.7413L 9.16815 11.7413C 9.40124 11.7395 9.69863 11.6886 9.98918 11.6012L 9.69813 10.6445ZM 9.16815 10.7413C 9.05003 10.7413 8.98516 10.7218 8.95367 10.7068C 8.92869 10.6949 8.91611 10.6826 8.90414 10.6615L 8.03469 11.1555C 8.27912 11.5857 8.71713 11.7413 9.16815 11.7413L 9.16815 10.7413ZM 8.90314 10.6597C 8.85015 10.5674 8.77939 10.2619 8.77939 9.60618L 7.77939 9.60618C 7.77939 10.242 7.83373 10.8052 8.03569 11.1573L 8.90314 10.6597Z"/>
<path id="path19_fill" d="M 3.19763 15.4222C 2.86524 15.5951 2.54952 15.7227 2.24989 15.8054C 1.94967 15.8882 1.66136 15.9296 1.38497 15.9296C 0.998368 15.9296 0.735073 15.8298 0.59747 15.6308C 0.459272 15.4318 0.390168 15.0315 0.390168 14.4305C 0.390168 14.0852 0.42591 13.3102 0.496796 12.1077C 0.567682 10.9057 0.603423 9.87209 0.603423 9.00746C 0.603423 8.06799 0.55637 7.30485 0.461656 6.7186C 0.366943 6.13235 0.212656 5.63285 -3.12675e-06 5.21896C 0.291881 5.05397 0.592106 4.92754 0.900074 4.84136C 1.20864 4.75518 1.51184 4.71153 1.81207 4.71153C 2.17484 4.71153 2.42383 4.796 2.55845 4.96496C 2.69308 5.13392 2.7598 5.44802 2.7598 5.90613C 2.7598 6.02689 2.72406 6.68402 2.65317 7.87919C 2.58229 9.0738 2.54654 10.2089 2.54654 11.2838C 2.54654 12.2908 2.59956 13.1254 2.70678 13.7865C 2.81281 14.4487 2.97603 14.9935 3.19763 15.4222ZM 3.10291 1.27285C 3.10291 1.70148 2.94446 2.05867 2.62875 2.34442C 2.31304 2.63018 1.91392 2.77305 1.43261 2.77305C 1.01385 2.77305 0.682059 2.66022 0.437233 2.43457C 0.192408 2.20892 0.0702942 1.90445 0.0702942 1.52118C 0.0702942 1.10049 0.228149 0.741599 0.543861 0.445073C 0.859572 0.148547 1.24319 -8.65128e-07 1.69352 -8.65128e-07C 2.10335 -8.65128e-07 2.4417 0.120198 2.70618 0.360593C 2.97007 0.600422 3.10291 0.904886 3.10291 1.27285Z"/>
<path id="path20_stroke" d="M 3.19763 15.4222L 3.42839 15.8657L 3.87081 15.6356L 3.64178 15.1925L 3.19763 15.4222ZM 2.24989 15.8054L 2.3828 16.2875L 2.38304 16.2874L 2.24989 15.8054ZM 0.59747 15.6308L 1.00873 15.3464L 1.00816 15.3456L 0.59747 15.6308ZM 0.496796 12.1077L -0.00233693 12.0782L -0.00233774 12.0782L 0.496796 12.1077ZM 0.461656 6.7186L -0.0319435 6.79834L 0.461656 6.7186ZM -3.12675e-06 5.21896L -0.246043 4.78369L -0.664311 5.02011L -0.444734 5.44747L -3.12675e-06 5.21896ZM 0.900074 4.84136L 0.765575 4.35979L 0.765334 4.35986L 0.900074 4.84136ZM 2.65317 7.87919L 3.15229 7.90881L 3.1523 7.90879L 2.65317 7.87919ZM 2.70678 13.7865L 3.20049 13.7074L 3.20033 13.7064L 2.70678 13.7865ZM 0.543861 0.445073L 0.201555 0.0806189L 0.543861 0.445073ZM 2.70618 0.360593L 2.36988 0.730594L 2.3699 0.730611L 2.70618 0.360593ZM 2.96686 14.9786C 2.65595 15.141 2.38902 15.2491 2.11675 15.3235L 2.38304 16.2874C 2.71002 16.1962 3.07452 16.0492 3.42839 15.8657L 2.96686 14.9786ZM 2.11699 15.3234C 1.84749 15.3988 1.62575 15.4309 1.38497 15.4296L 1.38497 16.4296C 1.69698 16.4283 2.05185 16.3777 2.3828 16.2875L 2.11699 15.3234ZM 1.38497 15.4296C 1.22972 15.4311 1.1565 15.4211 1.07517 15.3873C 1.00687 15.3666 1.02605 15.3831 1.00873 15.3464L 0.186208 15.9152C 0.462684 16.315 0.934976 16.4296 1.38497 16.4296L 1.38497 15.4296ZM 1.00816 15.3456C 0.999691 15.3334 0.964154 15.2669 0.934702 15.0963C 0.903851 14.9215 0.889871 14.7138 0.890168 14.4305L -0.109832 14.4305C -0.109535 14.7483 -0.0889629 15.0412 -0.0507124 15.2665C -0.0110633 15.4961 0.0570502 15.7292 0.186784 15.916L 1.00816 15.3456ZM 0.890168 14.4305C 0.890035 14.0968 0.925221 13.3364 0.995929 12.1371L -0.00233774 12.0782C -0.073402 13.284 -0.109699 14.0737 -0.109832 14.4305L 0.890168 14.4305ZM 0.995929 12.1371C 1.06714 10.929 1.10335 9.88073 1.10342 9.00746L 0.103424 9.00746C 0.103498 9.86345 0.068228 10.8823 -0.00233693 12.0782L 0.995929 12.1371ZM 1.10342 9.00746C 1.10319 8.0526 1.0533 7.24952 0.955256 6.63885L -0.0319435 6.79834C 0.0594401 7.36017 0.10366 8.08338 0.103424 9.00746L 1.10342 9.00746ZM 0.955256 6.63885C 0.85379 6.01842 0.675658 5.44409 0.444727 4.99046L -0.444734 5.44747C -0.250347 5.82161 -0.119904 6.24628 -0.0319435 6.79834L 0.955256 6.63885ZM 0.246037 5.65424C 0.512301 5.50277 0.756832 5.39963 1.03481 5.32286L 0.765334 4.35986C 0.427381 4.45545 0.0714613 4.60518 -0.246043 4.78369L 0.246037 5.65424ZM 1.03457 5.32293C 1.31173 5.24444 1.54756 5.21025 1.81207 5.21153L 1.81207 4.21153C 1.47613 4.2128 1.10555 4.26592 0.765575 4.35979L 1.03457 5.32293ZM 1.81207 5.21153C 1.95805 5.21153 2.05297 5.22896 2.11008 5.24835C 2.16364 5.26653 2.17161 5.28181 2.16741 5.27654L 2.9495 4.65338C 2.67109 4.30397 2.22585 4.21153 1.81207 4.21153L 1.81207 5.21153ZM 2.16741 5.27654C 2.15632 5.26495 2.17303 5.27954 2.18526 5.31141C 2.20123 5.34799 2.20863 5.37324 2.22064 5.43154C 2.24861 5.5579 2.26026 5.69862 2.2598 5.90613L 3.2598 5.90613C 3.2598 5.43958 3.19999 4.96776 2.9495 4.65338L 2.16741 5.27654ZM 2.2598 5.90613C 2.25998 6.01331 2.22486 6.65564 2.15405 7.84959L 3.1523 7.90879C 3.22325 6.71239 3.25962 6.04048 3.2598 5.90613L 2.2598 5.90613ZM 2.15405 7.84957C 2.0828 9.05112 2.04661 10.201 2.04654 11.2838L 3.04654 11.2838C 3.04648 10.2167 3.08177 9.09647 3.15229 7.90881L 2.15405 7.84957ZM 2.04654 11.2838C 2.0468 12.3066 2.1027 13.1813 2.21323 13.8665L 3.20033 13.7064C 3.09642 13.0694 3.04629 12.2749 3.04654 11.2838L 2.04654 11.2838ZM 2.21307 13.8655C 2.32541 14.5602 2.51247 15.1809 2.75347 15.6518L 3.64178 15.1925C 3.4396 14.8062 3.30022 14.3372 3.20049 13.7074L 2.21307 13.8655ZM 2.60291 1.27285C 2.60291 1.56078 2.50379 1.78313 2.29322 1.97372L 2.96428 2.71513C 3.38513 2.33421 3.60291 1.84217 3.60291 1.27285L 2.60291 1.27285ZM 2.29322 1.97372C 2.08167 2.1652 1.80745 2.27305 1.43261 2.27305L 1.43261 3.27305C 2.0204 3.27305 2.54441 3.09516 2.96428 2.71513L 2.29322 1.97372ZM 1.43261 2.27305C 1.10572 2.27305 0.906494 2.1871 0.776098 2.06691L 0.0983676 2.80222C 0.457623 3.13335 0.921974 3.27305 1.43261 3.27305L 1.43261 2.27305ZM 0.776098 2.06691C 0.650084 1.95077 0.570294 1.78829 0.570294 1.52118L -0.429706 1.52118C -0.429706 2.02061 -0.265269 2.46706 0.0983676 2.80222L 0.776098 2.06691ZM 0.570294 1.52118C 0.570294 1.24297 0.667793 1.01463 0.886167 0.809527L 0.201555 0.0806189C -0.211495 0.468568 -0.429706 0.958003 -0.429706 1.52118L 0.570294 1.52118ZM 0.886167 0.809527C 1.12591 0.571707 1.33503 0.491492 1.69352 0.499999L 1.69352 -0.500001C 1.15135 -0.491494 0.593234 -0.274612 0.201555 0.0806189L 0.886167 0.809527ZM 1.69352 0.499999C 1.99893 0.499999 2.21119 0.586356 2.36988 0.730594L 3.04248 -0.00940721C 2.67221 -0.34596 2.20778 -0.500001 1.69352 -0.500001L 1.69352 0.499999ZM 2.3699 0.730611C 2.52627 0.87273 2.60291 1.04134 2.60291 1.27285L 3.60291 1.27285C 3.60291 0.768431 3.41386 0.328114 3.04247 -0.00942502L 2.3699 0.730611Z"/>
<path id="path21_fill" d="M 9.58215 5.8398L 9.58215 4.84816C 9.58215 3.69835 9.53509 2.77929 9.44038 2.09155C 9.34567 1.40382 9.19972 0.868599 9.00255 0.48476C 9.31767 0.319771 9.61372 0.197308 9.89071 0.118499C 10.1671 0.039123 10.4119 -2.07631e-06 10.6246 -2.07631e-06C 11.004 -2.07631e-06 11.2679 0.094116 11.418 0.281783C 11.5682 0.46945 11.6432 0.81927 11.6432 1.33068C 11.6432 1.65328 11.5902 2.76625 11.483 4.66787C 11.3763 6.56949 11.3233 8.31349 11.3233 9.89931C 11.3233 11.8236 11.3805 13.2212 11.4949 14.0926C 11.6087 14.9646 11.8046 15.6223 12.081 16.0657C 11.7332 16.2386 11.4174 16.3662 11.1333 16.4489C 10.8486 16.5317 10.5883 16.5731 10.3512 16.5731C 10.0355 16.5731 9.81209 16.4869 9.68163 16.314C 9.55118 16.1411 9.48624 15.844 9.48624 15.4233C 9.48624 15.2804 9.49041 15.1699 9.49875 15.0905C 9.5065 15.0117 9.51067 14.9385 9.51067 14.8705C 8.89414 15.5021 8.25199 15.9665 7.58363 16.263C 6.91587 16.5595 6.17424 16.7081 5.36054 16.7081C 3.78675 16.7081 2.50008 16.212 1.49993 15.2203C 0.499781 14.2281 1.4543e-07 12.9462 1.4543e-07 11.3757C 1.4543e-07 9.60221 0.615343 8.13433 1.84781 6.97317C 3.08028 5.81201 4.63917 5.23144 6.52629 5.23144C 6.98437 5.23144 7.46807 5.2819 7.97738 5.38395C 8.48669 5.48487 9.02161 5.63682 9.58215 5.8398ZM 9.45229 13.2359C 9.46777 12.4994 9.48207 11.7119 9.49399 10.8739C 9.5059 10.0359 9.51126 9.56423 9.51126 9.45934C 9.51126 8.88783 9.50947 8.46317 9.50531 8.18535C 9.50113 7.90754 9.4916 7.64786 9.47552 7.40747C 8.91498 7.18181 8.39198 7.01512 7.9059 6.9057C 7.41982 6.79627 6.95995 6.74185 6.52629 6.74185C 5.14431 6.74185 4.05064 7.15403 3.24528 7.97671C 2.43932 8.79938 2.03723 9.91801 2.03723 11.3309C 2.03723 12.5028 2.36903 13.4315 3.03202 14.1153C 3.69502 14.7991 4.59152 15.1415 5.72094 15.1415C 6.45541 15.1415 7.12615 14.9856 7.73494 14.6738C 8.34253 14.3614 8.91498 13.8817 9.45229 13.2359Z"/>
<path id="path22_stroke" d="M 9.58215 5.8398L 9.41191 6.30992L 10.0821 6.55262L 10.0821 5.8398L 9.58215 5.8398ZM 9.00255 0.48476L 8.77063 0.041802L 8.33111 0.271924L 8.5578 0.713221L 9.00255 0.48476ZM 9.89071 0.118499L 10.0275 0.599414L 10.0287 0.599074L 9.89071 0.118499ZM 11.483 4.66787L 10.9838 4.63972L 10.9838 4.63987L 11.483 4.66787ZM 11.4949 14.0926L 11.9907 14.0279L 11.9906 14.0276L 11.4949 14.0926ZM 12.081 16.0657L 12.3036 16.5134L 12.7966 16.2683L 12.5053 15.8012L 12.081 16.0657ZM 11.1333 16.4489L 11.2729 16.9291L 11.2732 16.929L 11.1333 16.4489ZM 9.49875 15.0905L 9.99603 15.1427L 9.99636 15.1394L 9.49875 15.0905ZM 9.51067 14.8705L 10.0107 14.8705L 10.0107 13.6425L 9.15287 14.5212L 9.51067 14.8705ZM 7.58363 16.263L 7.38086 15.8059L 7.38071 15.806L 7.58363 16.263ZM 1.49993 15.2203L 1.14779 15.5753L 1.14789 15.5754L 1.49993 15.2203ZM 7.97738 5.38395L 7.87914 5.87421L 7.88019 5.87441L 7.97738 5.38395ZM 9.45229 13.2359L 9.83664 13.5557L 9.9485 13.4213L 9.95218 13.2464L 9.45229 13.2359ZM 9.47552 7.40747L 9.9744 7.37409L 9.95345 7.06087L 9.66224 6.94364L 9.47552 7.40747ZM 3.24528 7.97671L 3.60244 8.32661L 3.60257 8.32648L 3.24528 7.97671ZM 7.73494 14.6738L 7.96288 15.1188L 7.96357 15.1184L 7.73494 14.6738ZM 10.0821 5.8398L 10.0821 4.84816L 9.08215 4.84816L 9.08215 5.8398L 10.0821 5.8398ZM 10.0821 4.84816C 10.082 3.68556 10.0329 2.73236 9.9357 2.02334L 8.94506 2.15977C 9.0373 2.82622 9.08231 3.71113 9.08215 4.84816L 10.0821 4.84816ZM 9.9357 2.02334C 9.83555 1.30373 9.66582 0.687619 9.44731 0.256298L 8.5578 0.713221C 8.73363 1.04958 8.85579 1.5039 8.94506 2.15977L 9.9357 2.02334ZM 9.23448 0.927717C 9.52941 0.772725 9.77797 0.669561 10.0275 0.599413L 9.75389 -0.362415C 9.44948 -0.274946 9.10593 -0.133183 8.77063 0.041802L 9.23448 0.927717ZM 10.0287 0.599074C 10.2758 0.527174 10.4515 0.498429 10.6246 0.499998L 10.6246 -0.500002C 10.3724 -0.498433 10.0585 -0.448928 9.7527 -0.362076L 10.0287 0.599074ZM 10.6246 0.499998C 10.9395 0.499998 11.016 0.579643 11.0276 0.594103L 11.8085 -0.0305367C 11.5198 -0.391412 11.0686 -0.500002 10.6246 -0.500002L 10.6246 0.499998ZM 11.0276 0.594103C 11.0613 0.636294 11.1432 0.828144 11.1432 1.33068L 12.1432 1.33068C 12.1432 0.810397 12.075 0.302607 11.8085 -0.0305367L 11.0276 0.594103ZM 11.1432 1.33068C 11.1434 1.64138 11.0909 2.74028 10.9838 4.63972L 11.9822 4.69601C 12.0895 2.79222 12.1431 1.66518 12.1432 1.33068L 11.1432 1.33068ZM 10.9838 4.63987C 10.8768 6.54789 10.8234 8.30589 10.8233 9.89931L 11.8233 9.89931C 11.8233 8.32108 11.8759 6.59108 11.9822 4.69586L 10.9838 4.63987ZM 10.8233 9.89931C 10.8234 11.8338 10.8823 13.264 10.9991 14.1577L 11.9906 14.0276C 11.8787 13.1784 11.8232 11.8134 11.8233 9.89931L 10.8233 9.89931ZM 10.9991 14.1573C 11.1167 15.0587 11.3253 15.7985 11.6567 16.3302L 12.5053 15.8012C 12.284 15.4461 12.1006 14.8705 11.9907 14.0279L 10.9991 14.1573ZM 11.8585 15.6179C 11.5281 15.7826 11.2537 15.8938 10.9935 15.9689L 11.2732 16.929C 11.5812 16.8386 11.9383 16.6946 12.3036 16.5134L 11.8585 15.6179ZM 10.9937 15.9688C 10.7393 16.0438 10.5489 16.0747 10.3512 16.0731L 10.3512 17.0731C 10.6276 17.0716 10.9578 17.0196 11.2729 16.9291L 10.9937 15.9688ZM 10.3512 16.0731C 10.2329 16.0747 10.1889 16.0689 10.1273 16.0421C 10.0753 16.0266 10.0979 16.0444 10.0808 16.0129L 9.28247 16.6151C 9.54527 16.9635 9.95444 17.0731 10.3512 17.0731L 10.3512 16.0731ZM 10.0808 16.0129C 10.0539 15.9772 9.98624 15.8228 9.98624 15.4233L 8.98624 15.4233C 8.98624 15.8652 9.04847 16.3049 9.28247 16.6151L 10.0808 16.0129ZM 9.98624 15.4233C 9.98616 15.2898 9.98915 15.2054 9.99601 15.1427L 9.00149 15.0382C 8.99168 15.1343 8.98633 15.271 8.98624 15.4233L 9.98624 15.4233ZM 9.99636 15.1394C 10.005 15.0504 10.0105 14.9528 10.0107 14.8705L 9.01067 14.8705C 9.01087 14.9243 9.00799 14.973 9.00115 15.0416L 9.99636 15.1394ZM 9.15287 14.5212C 8.56755 15.1235 8.00276 15.533 7.38086 15.8059L 7.78641 16.72C 8.50122 16.3999 9.22073 15.8807 9.86847 15.2198L 9.15287 14.5212ZM 7.38071 15.806C 6.7644 16.083 6.1249 16.2105 5.36054 16.2081L 5.36054 17.2081C 6.22358 17.2056 7.06735 17.036 7.78656 16.72L 7.38071 15.806ZM 5.36054 16.2081C 3.90181 16.2081 2.74718 15.7528 1.85197 14.8653L 1.14789 15.5754C 2.25298 16.6711 3.67169 17.2081 5.36054 17.2081L 5.36054 16.2081ZM 1.85207 14.8654C 0.957911 13.9783 0.5 12.8298 0.5 11.3757L -0.5 11.3757C -0.5 13.0626 0.0416511 14.4779 1.14779 15.5753L 1.85207 14.8654ZM 0.5 11.3757C 0.5 9.73241 1.06388 8.3987 2.19068 7.33709L 1.50494 6.60924C 0.166809 7.86995 -0.5 9.47202 -0.5 11.3757L 0.5 11.3757ZM 2.19068 7.33709C 3.31951 6.27357 4.75087 5.73144 6.52629 5.73144L 6.52629 4.73144C 4.52747 4.73144 2.84104 5.35045 1.50494 6.60924L 2.19068 7.33709ZM 6.52629 5.73144C 6.9584 5.73076 7.39293 5.77622 7.87914 5.87421L 8.07561 4.8937C 7.54321 4.78757 7.01035 4.73211 6.52629 4.73144L 6.52629 5.73144ZM 7.88019 5.87441C 8.36969 5.97099 8.86808 6.11267 9.41191 6.30992L 9.75238 5.36967C 9.17514 5.16097 8.60369 4.99875 8.07456 4.89349L 7.88019 5.87441ZM 9.95218 13.2464C 9.96768 12.5092 9.98201 11.72 9.99394 10.881L 8.99404 10.8668C 8.98214 11.7038 8.96787 12.4896 8.9524 13.2254L 9.95218 13.2464ZM 9.99394 10.881C 10.0059 10.0423 10.0113 9.56706 10.0113 9.45934L 9.01126 9.45934C 9.01127 9.56139 9.00594 10.0295 8.99404 10.8668L 9.99394 10.881ZM 10.0113 9.45934C 10.0113 8.88678 10.0095 8.45837 10.0052 8.17785L 9.00536 8.19286C 9.0095 8.46797 9.01126 8.88888 9.01126 9.45934L 10.0113 9.45934ZM 10.0052 8.17785C 10.001 7.89461 9.99093 7.622 9.9744 7.37409L 8.97663 7.44085C 8.99227 7.67373 9.0013 7.92046 9.00536 8.19286L 10.0052 8.17785ZM 9.66224 6.94364C 9.08438 6.71138 8.52292 6.53257 8.01571 6.41791L 7.79609 7.39349C 8.26103 7.49767 8.74559 7.65225 9.2888 7.87129L 9.66224 6.94364ZM 8.01571 6.41791C 7.50422 6.30345 6.98938 6.24271 6.52629 6.24185L 6.52629 7.24185C 6.93052 7.24098 7.33542 7.2891 7.79609 7.39349L 8.01571 6.41791ZM 6.52629 6.24185C 5.03852 6.24185 3.80572 6.68946 2.88798 7.62693L 3.60257 8.32648C 4.29556 7.6186 5.2501 7.24185 6.52629 7.24185L 6.52629 6.24185ZM 2.88811 7.6268C 1.97052 8.56343 1.53723 9.81899 1.53723 11.3309L 2.53723 11.3309C 2.53723 10.017 2.90812 9.03533 3.60244 8.32661L 2.88811 7.6268ZM 1.53723 11.3309C 1.53723 12.6011 1.89974 13.6658 2.67306 14.4634L 3.39099 13.7672C 2.83831 13.1972 2.53723 12.4045 2.53723 11.3309L 1.53723 11.3309ZM 2.67306 14.4634C 3.44748 15.262 4.48321 15.6415 5.72094 15.6415L 5.72094 14.6415C 4.69984 14.6415 3.94256 14.3361 3.39099 13.7672L 2.67306 14.4634ZM 5.72094 15.6415C 6.51239 15.6383 7.29802 15.4551 7.96288 15.1188L 7.50699 14.2287C 6.95428 14.5161 6.39843 14.6448 5.72094 14.6415L 5.72094 15.6415ZM 7.96357 15.1184C 8.61912 14.7779 9.26915 14.2346 9.83664 13.5557L 9.06793 12.9161C 8.56082 13.5288 8.06595 13.9448 7.50631 14.2291L 7.96357 15.1184Z"/>
<path id="path23_fill" d="M 8.97872 9.00859C 9.15207 9.211 9.28073 9.40094 9.36353 9.57783C 9.44633 9.75473 9.48743 9.92539 9.48743 10.0904C 9.48743 10.4963 9.16993 10.8291 8.53374 11.0882C 7.89815 11.3479 7.06718 11.4777 6.04022 11.4777C 4.1531 11.4777 2.67461 10.9873 1.60476 10.0065C 0.534323 9.0256 -4.29019e-06 7.67111 -4.29019e-06 5.94185C -4.29019e-06 4.19842 0.538495 2.77192 1.61668 1.66349C 2.69487 0.555063 4.07864 3.46051e-08 5.76859 3.46051e-08C 7.07194 3.46051e-08 8.14119 0.353792 8.97872 1.05967C 9.81566 1.76668 10.2338 2.66873 10.2338 3.76525C 10.2338 4.62988 9.88654 5.24618 9.19138 5.61471C 8.49681 5.98267 7.31617 6.16694 5.65004 6.16694C 5.02636 6.16694 4.40448 6.14653 3.78437 6.10514C 3.16427 6.06431 2.55071 6.00195 1.94252 5.91917L 1.94252 6.07736C 1.94252 7.24929 2.30529 8.17798 3.03203 8.86175C 3.75876 9.54551 4.7458 9.88796 5.99376 9.88796C 6.57753 9.88796 7.119 9.81482 7.6164 9.66798C 8.11379 9.52113 8.5677 9.30172 8.97872 9.00859ZM 2.08429 4.57772C 2.60552 4.6605 3.18035 4.72286 3.8082 4.76369C 4.43605 4.80508 5.11274 4.82549 5.83948 4.82549C 6.82652 4.82549 7.48594 4.73931 7.81714 4.56638C 8.14953 4.39345 8.31513 4.08162 8.31513 3.63088C 8.31513 2.94711 8.06614 2.40622 7.56874 2.00764C 7.07135 1.60963 6.39167 1.41006 5.53151 1.41006C 4.61535 1.41006 3.85347 1.68787 3.24528 2.24407C 2.63709 2.80027 2.25049 3.57815 2.08429 4.57772Z"/>
<path id="path24_stroke" d="M 8.97872 9.00859L 9.35849 8.68336L 9.0609 8.33587L 8.68841 8.60151L 8.97872 9.00859ZM 8.53374 11.0882L 8.34515 10.6252L 8.34464 10.6254L 8.53374 11.0882ZM 1.60476 10.0065L 1.94266 9.63791L 1.94256 9.63782L 1.60476 10.0065ZM 8.97872 1.05967L 9.30139 0.677715L 9.30095 0.677347L 8.97872 1.05967ZM 9.19138 5.61471L 9.42545 6.05654L 9.42557 6.05647L 9.19138 5.61471ZM 3.78437 6.10514L 3.81767 5.60625L 3.81722 5.60622L 3.78437 6.10514ZM 1.94252 5.91917L 2.00995 5.42374L 1.44252 5.34651L 1.44252 5.91917L 1.94252 5.91917ZM 2.08429 4.57772L 1.59106 4.49571L 1.50846 4.99253L 2.00587 5.07153L 2.08429 4.57772ZM 3.8082 4.76369L 3.84109 4.26477L 3.84064 4.26474L 3.8082 4.76369ZM 7.81714 4.56638L 7.58637 4.12282L 7.58572 4.12316L 7.81714 4.56638ZM 7.56874 2.00764L 7.88141 1.61746L 7.88114 1.61725L 7.56874 2.00764ZM 8.59896 9.33383C 8.75457 9.51431 8.84598 9.6479 8.91069 9.7898L 9.81638 9.36586C 9.71549 9.15397 9.54956 8.90769 9.35849 8.68336L 8.59896 9.33383ZM 8.91069 9.7898C 8.97447 9.92008 8.99092 9.98433 8.98743 10.0904L 9.98743 10.0904C 9.98394 9.86645 9.9182 9.58937 9.81638 9.36586L 8.91069 9.7898ZM 8.98743 10.0904C 8.98743 10.174 8.93535 10.3848 8.34515 10.6252L 8.72234 11.5513C 9.40451 11.2735 9.98743 10.8186 9.98743 10.0904L 8.98743 10.0904ZM 8.34464 10.6254C 7.7641 10.8662 7.02847 10.9792 6.04022 10.9777L 6.04022 11.9777C 7.10589 11.9762 8.0322 11.8296 8.72285 11.5511L 8.34464 10.6254ZM 6.04022 10.9777C 4.23958 10.9777 2.89529 10.5113 1.94266 9.63791L 1.26687 10.375C 2.45393 11.4633 4.06663 11.9777 6.04022 11.9777L 6.04022 10.9777ZM 1.94256 9.63782C 0.995268 8.7698 0.499996 7.56024 0.499996 5.94185L -0.500004 5.94185C -0.500004 7.78199 0.0733782 9.28139 1.26697 10.3751L 1.94256 9.63782ZM 0.499996 5.94185C 0.499996 4.31041 0.999654 3.01492 1.97509 2.01212L 1.25827 1.31486C 0.0773366 2.52892 -0.500004 4.08642 -0.500004 5.94185L 0.499996 5.94185ZM 1.97509 2.01212C 2.95004 1.00982 4.20001 0.5 5.76859 0.5L 5.76859 -0.5C 3.95727 -0.5 2.43969 0.100301 1.25827 1.31486L 1.97509 2.01212ZM 5.76859 0.5C 6.97705 0.5 7.92532 0.825744 8.6565 1.44199L 9.30095 0.677347C 8.35707 -0.118161 7.16683 -0.5 5.76859 -0.5L 5.76859 0.5ZM 8.65606 1.44162C 9.38031 2.05345 9.73382 2.81566 9.73382 3.76525L 10.7338 3.76525C 10.7338 2.5218 10.251 1.47992 9.30139 0.677715L 8.65606 1.44162ZM 9.73382 3.76525C 9.73382 4.46742 9.46972 4.90123 8.95719 5.17295L 9.42557 6.05647C 10.3034 5.59112 10.7338 4.79234 10.7338 3.76525L 9.73382 3.76525ZM 8.95731 5.17288C 8.37909 5.47921 7.30644 5.66694 5.65004 5.66694L 5.65004 6.66694C 7.3259 6.66694 8.61454 6.48613 9.42545 6.05654L 8.95731 5.17288ZM 5.65004 5.66694C 5.03457 5.66701 4.42933 5.64714 3.81767 5.60625L 3.75107 6.60403C 4.37962 6.64591 5.01816 6.66687 5.65004 6.66694L 5.65004 5.66694ZM 3.81722 5.60622C 3.20598 5.56606 2.60971 5.50544 2.00995 5.42374L 1.87509 6.4146C 2.4917 6.49845 3.12256 6.56257 3.75153 6.60406L 3.81722 5.60622ZM 1.44252 5.91917L 1.44252 6.07736L 2.44252 6.07736L 2.44252 5.91917L 1.44252 5.91917ZM 1.44252 6.07736C 1.44252 7.36066 1.84444 8.43089 2.6894 9.2259L 3.37465 8.49759C 2.76615 7.92507 2.44252 7.13791 2.44252 6.07736L 1.44252 6.07736ZM 2.6894 9.2259C 3.5305 10.0173 4.65162 10.388 5.99376 10.388L 5.99376 9.38796C 4.83999 9.38796 3.98702 9.07376 3.37465 8.49759L 2.6894 9.2259ZM 5.99376 10.388C 6.61107 10.3868 7.22356 10.3038 7.75797 10.1475L 7.47482 9.18844C 7.01445 9.32588 6.54399 9.38909 5.99376 9.38796L 5.99376 10.388ZM 7.75797 10.1475C 8.29398 9.98754 8.82257 9.73188 9.26904 9.41568L 8.68841 8.60151C 8.31283 8.87155 7.9336 9.05473 7.47482 9.18844L 7.75797 10.1475ZM 2.00587 5.07153C 2.53932 5.15609 3.13715 5.22099 3.77576 5.26263L 3.84064 4.26474C 3.22354 4.22473 2.67171 4.1649 2.16272 4.08391L 2.00587 5.07153ZM 3.77531 5.2626C 4.41206 5.3045 5.1052 5.32543 5.83948 5.32549L 5.83948 4.32549C 5.12028 4.32554 4.46003 4.30565 3.84109 4.26477L 3.77531 5.2626ZM 5.83948 5.32549C 6.81445 5.32549 7.59397 5.24695 8.04855 5.0096L 7.58572 4.12316C 7.3779 4.23167 6.83859 4.32549 5.83948 4.32549L 5.83948 5.32549ZM 8.0479 5.00994C 8.58306 4.73153 8.81513 4.22193 8.81513 3.63088L 7.81513 3.63088C 7.81513 3.94131 7.716 4.05538 7.58637 4.12282L 8.0479 5.00994ZM 8.81513 3.63088C 8.81513 2.8078 8.50659 2.11845 7.88141 1.61746L 7.25608 2.39782C 7.62568 2.694 7.81513 3.08643 7.81513 3.63088L 8.81513 3.63088ZM 7.88114 1.61725C 7.26851 1.12703 6.46576 0.910055 5.53151 0.910055L 5.53151 1.91006C 6.31759 1.91006 6.87418 2.09223 7.25635 2.39804L 7.88114 1.61725ZM 5.53151 0.910055C 4.5056 0.910055 3.6188 1.22492 2.90785 1.8751L 3.58271 2.61304C 4.08814 2.15082 4.7251 1.91006 5.53151 1.91006L 5.53151 0.910055ZM 2.90785 1.8751C 2.19939 2.52299 1.77125 3.41198 1.59106 4.49571L 2.57752 4.65973C 2.72972 3.74432 3.07479 3.07754 3.58271 2.61304L 2.90785 1.8751Z"/>
</defs>
</svg>
