<svg width="36" height="34" viewBox="0 0 36 34" version="1.1" xmlns="http://www.w3.org/2000/svg" xmlns:xlink="http://www.w3.org/1999/xlink">
<title>Logo Small</title>
<desc>Created using Figma</desc>
<g id="Canvas" transform="translate(-628 501)">
<g id="Logo Small">
<g id="Group">
<g id="Vector">
<use xlink:href="#path0_fill" transform="translate(652.014 -500)" fill="#FFFFFF"/>
<use xlink:href="#path1_stroke" transform="translate(652.014 -500)" fill="#FFFFFF"/>
</g>
<g id="Vector">
<use xlink:href="#path2_fill" transform="translate(637.862 -495.453)" fill="#FFFFFF"/>
<use xlink:href="#path3_stroke" transform="translate(637.862 -495.453)" fill="#FFFFFF"/>
</g>
<g id="Vector">
<use xlink:href="#path4_fill" transform="translate(647.528 -497.208)" fill="#FFFFFF"/>
<use xlink:href="#path5_stroke" transform="translate(647.528 -497.208)" fill="#FFFFFF"/>
</g>
<g id="Vector">
<use xlink:href="#path6_fill" transform="translate(628 -469.468)" fill="#FFFFFF"/>
</g>
</g>
</g>
</g>
<defs>
<path id="path0_fill" d="M 10.4366 0.120338C 10.6882 -0.35808 4.74752 0.532637 -1.7402e-07 3.829L 2.70324 11.0066C 2.70289 11.007 10.0542 0.846948 10.4366 0.120338Z"/>
<path id="path1_stroke" d="M 10.4366 0.120338L 10.8791 0.353203L 10.8792 0.353077L 10.4366 0.120338ZM -1.7402e-07 3.829L -0.285168 3.4183L -0.605261 3.64055L -0.467915 4.00523L -1.7402e-07 3.829ZM 2.70324 11.0066L 3.04788 11.3689L 3.28794 11.1405L 3.17116 10.8304L 2.70324 11.0066ZM 10.8792 0.353077C 10.9311 0.254345 10.9747 0.0988092 10.9175 -0.0759449C 10.8637 -0.24038 10.7489 -0.333551 10.6748 -0.379095C 10.5416 -0.460919 10.391 -0.481644 10.3057 -0.490308C 10.1236 -0.507598 9.84012 -0.498031 9.52319 -0.462366C 8.90768 -0.391986 8.00093 -0.214779 6.9578 0.0777496C 4.88684 0.659998 2.13838 1.73969 -0.285168 3.4183L 0.285167 4.23971C 2.60913 2.62195 5.2048 1.6081 7.22817 1.0405C 8.23221 0.75811 9.06018 0.596318 9.63615 0.531232C 9.91496 0.499164 10.0914 0.491881 10.2046 0.504575C 10.2669 0.510904 10.2228 0.516879 10.1513 0.472959C 10.108 0.446367 10.0129 0.374947 9.96708 0.235002C 9.91792 0.0847379 9.95789 -0.0435711 9.99409 -0.112402L 10.8792 0.353077ZM -0.467915 4.00523L 2.23533 11.1828L 3.17116 10.8304L 0.467914 3.65278L -0.467915 4.00523ZM 2.35861 10.6444C 3.0316 10.6295 3.10917 11.2985 3.10895 11.2988C 3.10892 11.2989 3.10887 11.299 3.10893 11.2989C 3.10911 11.2986 3.10938 11.2983 3.1098 11.2977C 3.11067 11.2965 3.11197 11.2947 3.11373 11.2922C 3.11725 11.2874 3.12251 11.2801 3.12947 11.2705C 3.14338 11.2512 3.16405 11.2227 3.19102 11.1853C 3.24495 11.1108 3.32414 11.0012 3.42503 10.8616C 3.6268 10.5823 3.91555 10.1825 4.26319 9.70043C 4.95841 8.73648 5.88967 7.4432 6.83279 6.12736C 7.7759 4.81153 8.73184 3.47176 9.47566 2.41585C 9.84778 1.8876 10.1683 1.4283 10.4072 1.07904C 10.637 0.743125 10.8144 0.476027 10.8791 0.353203L 9.99416 -0.112528C 9.9632 -0.0536991 9.82727 0.155649 9.58184 0.514437C 9.34555 0.859873 9.02898 1.31353 8.65814 1.83996C 7.91605 2.8934 6.96248 4.22984 6.02 5.5448C 5.07753 6.85975 4.14713 8.15182 3.45212 9.11548C 3.10466 9.59726 2.81616 9.99677 2.61447 10.2759C 2.51364 10.4155 2.43455 10.5249 2.38064 10.5994C 2.3537 10.6367 2.33306 10.6652 2.31915 10.6845C 2.3122 10.6941 2.30692 10.7014 2.30339 10.7063C 2.30161 10.7087 2.30026 10.7106 2.29935 10.7119C 2.29888 10.7125 2.29848 10.7131 2.29822 10.7134C 2.29806 10.7136 2.29784 10.714 2.2977 10.7142C 2.29737 10.7146 2.37488 11.3837 3.04788 11.3689L 2.35861 10.6444Z"/>
<path id="path2_fill" d="M 12.9572 2.69031e-07L 15.7866 7.65637C 15.7866 7.65637 3.37737 24.3115 1.19945 27.1959C 0.989176 27.4742 -0.187991 26.6751 0.0258454 26.3987C 1.38727 24.6397 5.39135 19.3801 5.39135 19.3801C 5.39135 19.3801 2.31069 7.97543 12.9572 2.69031e-07Z"/>
<path id="path3_stroke" d="M 12.9572 2.69031e-07L 13.4262 -0.173318L 13.1939 -0.80202L 12.6575 -0.400171L 12.9572 2.69031e-07ZM 15.7866 7.65637L 16.1876 7.9551L 16.3497 7.73754L 16.2556 7.48305L 15.7866 7.65637ZM 1.19945 27.1959L 1.59842 27.4972L 1.59848 27.4972L 1.19945 27.1959ZM 0.0258454 26.3987L -0.369563 26.0927L -0.369587 26.0927L 0.0258454 26.3987ZM 5.39135 19.3801L 5.78918 19.683L 5.9382 19.4872L 5.87405 19.2497L 5.39135 19.3801ZM 12.4882 0.173319L 15.3176 7.82969L 16.2556 7.48305L 13.4262 -0.173318L 12.4882 0.173319ZM 15.7866 7.65637C 15.3857 7.35763 15.3856 7.3577 15.3855 7.35782C 15.3854 7.35795 15.3853 7.35814 15.3851 7.35839C 15.3847 7.3589 15.3842 7.35966 15.3834 7.36067C 15.3819 7.36269 15.3797 7.36571 15.3767 7.36971C 15.3707 7.37773 15.3618 7.38969 15.35 7.40549C 15.3265 7.43709 15.2915 7.48403 15.2458 7.54537C 15.1544 7.66805 15.02 7.84837 14.8482 8.07888C 14.5047 8.53992 14.0114 9.20176 13.4128 10.005C 12.2154 11.6115 10.5962 13.7834 8.90897 16.0455C 5.53448 20.5698 1.88856 25.4535 0.800421 26.8946L 1.59848 27.4972C 2.68825 26.0539 6.33593 21.1678 9.71055 16.6434C 11.3979 14.3812 13.0171 12.2091 14.2145 10.6026C 14.8133 9.79935 15.3065 9.13747 15.6501 8.67642C 15.8219 8.44589 15.9562 8.26556 16.0477 8.14287C 16.0934 8.08152 16.1284 8.03458 16.1519 8.00298C 16.1637 7.98717 16.1726 7.97521 16.1786 7.96719C 16.1816 7.96318 16.1838 7.96016 16.1853 7.95814C 16.1861 7.95713 16.1866 7.95637 16.187 7.95586C 16.1872 7.95561 16.1873 7.95542 16.1874 7.95529C 16.1875 7.95517 16.1876 7.9551 15.7866 7.65637ZM 0.800479 26.8945C 0.887312 26.7795 1.0013 26.7576 1.03908 26.7545C 1.07187 26.7518 1.07546 26.7588 1.03812 26.7478C 0.966983 26.727 0.854376 26.6731 0.734494 26.5917C 0.613818 26.5097 0.526602 26.4276 0.48681 26.3755C 0.465368 26.3475 0.479675 26.3566 0.490856 26.4006C 0.505129 26.4568 0.513998 26.5849 0.421278 26.7047L -0.369587 26.0927C -0.515766 26.2816 -0.516888 26.4952 -0.478346 26.6469C -0.442897 26.7864 -0.370064 26.9011 -0.307931 26.9825C -0.192221 27.1299 0.00092245 27.3012 0.172718 27.419C 0.345216 27.535 0.575056 27.6518 0.756465 27.7074C 0.857445 27.7358 1.01079 27.7568 1.12068 27.7512C 1.26225 27.7396 1.45902 27.6818 1.59842 27.4972L 0.800479 26.8945ZM 0.421254 26.7048C 1.10287 25.824 2.44529 24.068 3.61661 22.5331C 4.20229 21.7656 4.74546 21.0531 5.14214 20.5325C 5.34049 20.2721 5.50226 20.0598 5.61441 19.9125C 5.6705 19.8389 5.71419 19.7815 5.74385 19.7425C 5.75869 19.723 5.77002 19.7082 5.77764 19.6982C 5.78145 19.6932 5.78434 19.6894 5.78627 19.6868C 5.78723 19.6856 5.78796 19.6846 5.78845 19.684C 5.78869 19.6836 5.78887 19.6834 5.789 19.6832C 5.78906 19.6832 5.7891 19.6831 5.78913 19.6831C 5.78916 19.683 5.78918 19.683 5.39135 19.3801C 4.99352 19.0773 4.9935 19.0773 4.99347 19.0773C 4.99344 19.0774 4.99339 19.0774 4.99333 19.0775C 4.99321 19.0777 4.99303 19.0779 4.99279 19.0782C 4.9923 19.0789 4.99158 19.0798 4.99061 19.0811C 4.98869 19.0836 4.98581 19.0874 4.982 19.0924C 4.97439 19.1024 4.96307 19.1173 4.94824 19.1367C 4.91859 19.1757 4.87493 19.233 4.81886 19.3066C 4.70673 19.4539 4.54504 19.6661 4.34673 19.9264C 3.95011 20.4469 3.40716 21.1592 2.82165 21.9265C 1.65058 23.4611 0.310239 25.2143 -0.369563 26.0927L 0.421254 26.7048ZM 5.39135 19.3801C 5.87405 19.2497 5.8741 19.2499 5.87415 19.2501C 5.87414 19.2501 5.87418 19.2502 5.87417 19.2502C 5.87413 19.25 5.87412 19.25 5.87402 19.2496C 5.87374 19.2486 5.87346 19.2475 5.87292 19.2454C 5.87165 19.2406 5.87005 19.2344 5.86765 19.2249C 5.8625 19.2045 5.85555 19.1762 5.84625 19.1364C 5.82697 19.0539 5.80109 18.9368 5.77064 18.7794C 5.70847 18.4588 5.63316 18.0041 5.57374 17.4225C 5.45277 16.2464 5.4007 14.6332 5.67661 12.7529C 6.22168 9.01179 8.05742 4.29522 13.257 0.400171L 12.6575 -0.400171C 7.21049 3.6802 5.26329 8.6537 4.68706 12.6088C 4.40231 14.5766 4.455 16.3131 4.57896 17.5246C 4.64199 18.1367 4.72419 18.6354 4.7889 18.9696C 4.82189 19.1397 4.8518 19.2754 4.87245 19.3638C 4.88312 19.4094 4.89216 19.4462 4.89802 19.4695C 4.90112 19.4817 4.90378 19.492 4.90539 19.4982C 4.90629 19.5017 4.9071 19.5047 4.90756 19.5065C 4.90783 19.5075 4.9081 19.5085 4.90824 19.509C 4.90833 19.5093 4.90843 19.5097 4.90848 19.5099C 4.90857 19.5102 4.90865 19.5105 5.39135 19.3801Z"/>
<path id="path4_fill" d="M 15.3417 1.81079e-08L 3.4804e-07 20.4967C 3.4804e-07 20.4967 17.1226 14.6149 15.3417 1.81079e-08Z"/>
<path id="path5_stroke" d="M 15.3417 1.81079e-08L 15.838 -0.0604799L 15.6874 -1.29631L 14.9414 -0.299614L 15.3417 1.81079e-08ZM 3.4804e-07 20.4967L -0.400289 20.1971L -1.37337 21.4971L 0.162437 20.9695L 3.4804e-07 20.4967ZM 14.9414 -0.299614L -0.400289 20.1971L 0.400289 20.7963L 15.742 0.299614L 14.9414 -0.299614ZM 3.4804e-07 20.4967C 0.162437 20.9695 0.162687 20.9695 0.163001 20.9693C 0.163193 20.9693 0.163573 20.9692 0.163956 20.969C 0.1646 20.9688 0.16575 20.9684 0.167035 20.968C 0.169356 20.9671 0.173207 20.9658 0.177819 20.9642C 0.186547 20.9611 0.200343 20.9563 0.217538 20.9501C 0.250924 20.9382 0.302076 20.9196 0.366704 20.8955C 0.493903 20.848 0.683895 20.775 0.920943 20.6784C 1.39074 20.4869 2.06913 20.1928 2.86915 19.7975C 4.45997 19.0109 6.59233 17.79 8.65397 16.117C 12.7841 12.7611 16.7573 7.48369 15.838 -0.0604799L 14.8453 0.0604799C 15.7069 7.13126 12.0093 12.1021 8.02336 15.3409C 6.02698 16.9652 3.99001 18.1282 2.426 18.9011C 1.64861 19.2855 1.00321 19.5651 0.543571 19.7524C 0.315902 19.8452 0.139766 19.9128 0.0170161 19.9586C -0.0433304 19.9811 -0.0881087 19.9974 -0.119409 20.0086C -0.134557 20.014 -0.145293 20.0178 -0.153011 20.0205C -0.156622 20.0218 -0.158973 20.0226 -0.160798 20.0232C -0.161587 20.0235 -0.161995 20.0236 -0.162392 20.0238C -0.162529 20.0238 -0.16254 20.0238 -0.162609 20.0238C -0.162555 20.0238 -0.162437 20.0238 3.4804e-07 20.4967Z"/>
<path id="path6_fill" d="M 0.929354 0.000190123C 2.63006 -0.000488002 5.89641 0.000867876 7.40894 0.000867876C 8.332 0.000867876 8.31917 1.4646 7.52726 1.4646C 6.09314 1.4646 2.47895 1.46799 0.847739 1.46799C -0.289868 1.46799 -0.301986 0.000868248 0.929354 0.000190123Z"/>
</defs>
</svg>
